<svg xmlns="http://www.w3.org/2000/svg" viewBox="0 0 178.58 249.45"><defs><style>.cls-1,.cls-2,.cls-3,.cls-6{fill:#fff;}.cls-2{font-size:30.84px;letter-spacing:-0.12em;}.cls-2,.cls-3,.cls-5,.cls-6{font-family:Helvetica-Bold, Helvetica;font-weight:700;}.cls-3{font-size:13.27px;}.cls-4{font-size:11.98px;}.cls-4,.cls-7{font-family:Helvetica-Light, Helvetica;font-weight:300;}.cls-6{font-size:17.5px;}.cls-8{letter-spacing:0em;}</style></defs><title>Asset 41</title><g id="Layer_2" data-name="Layer 2"><g id="Sample_Card" data-name="Sample Card"><path d="M178.58,8.5V240.94a8.51,8.51,0,0,1-8.51,8.51H8.5A8.5,8.5,0,0,1,0,240.94V8.5A8.49,8.49,0,0,1,8.5,0H170.07A8.5,8.5,0,0,1,178.58,8.5Z"/><path class="cls-1" d="M76.94,65.32a22.31,22.31,0,0,1-1,5.45,23.57,23.57,0,0,1-5.25,9.77,25,25,0,0,1-13.12,7.14q-5.05,1.13-17.71,1.69V107.6h32v94H99.3V65.32Z"/><path class="cls-1" d="M153.78,64.38q-26,0-36.5,18.32T106.8,134.75q0,33.74,10.48,52t36.5,18.23q15,0,24.8-6V70.45Q168.76,64.38,153.78,64.38Zm15.64,106.31q-3.71,12.45-15.64,12.45T138,170.69q-3.85-12.45-3.86-35.94,0-24.61,3.86-36.45t15.78-11.84q11.92,0,15.64,11.84t3.71,36.45Q173.13,158.24,169.42,170.69Z"/><text class="cls-2" transform="translate(31.94 32.27)">10</text><text class="cls-2" transform="translate(146.48 217.58) rotate(180)">10</text><text class="cls-3" transform="translate(143.09 19.95)">TEN<tspan class="cls-4"><tspan x="-34.01" y="12.39">OF</tspan><tspan class="cls-5" x="-18.03" y="12.39" xml:space="preserve"> CLUBS</tspan></tspan></text><text class="cls-6" transform="translate(20.38 239.66) rotate(-90)">TEN <tspan class="cls-7" x="39.85" y="0">OF</tspan><tspan class="cls-8" x="63.19" y="0" xml:space="preserve"> CLUBS</tspan></text><ellipse class="cls-1" cx="13.1" cy="23.66" rx="5.58" ry="4.94" transform="translate(-8.77 7.76) rotate(-25.01)"/><ellipse class="cls-1" cx="24.16" cy="23.62" rx="4.94" ry="5.58" transform="translate(-7.46 35.53) rotate(-64.99)"/><circle class="cls-1" cx="18.63" cy="14.82" r="5.83"/><circle class="cls-1" cx="18.63" cy="21.39" r="2.64"/><path class="cls-1" d="M27,32.15v.45H10.3v-.45h.07a8.28,8.28,0,0,0,8.26-8.29,8.28,8.28,0,0,0,8.26,8.29Z"/><ellipse class="cls-1" cx="165.24" cy="226.19" rx="5.58" ry="4.94" transform="translate(-80.13 91.07) rotate(-25.01)"/><ellipse class="cls-1" cx="154.18" cy="226.22" rx="4.94" ry="5.58" transform="translate(-116.01 270.31) rotate(-64.99)"/><circle class="cls-1" cx="159.71" cy="235.03" r="5.83"/><circle class="cls-1" cx="159.71" cy="228.45" r="2.64"/><path class="cls-1" d="M151.38,217.7v-.45H168v.45H168a8.28,8.28,0,0,0-8.26,8.29,8.27,8.27,0,0,0-8.25-8.29Z"/></g></g></svg>