<svg xmlns="http://www.w3.org/2000/svg" viewBox="0 0 178.58 249.45"><defs><style>.cls-1{fill:#e31c24;}.cls-2,.cls-3,.cls-4,.cls-7{fill:#fff;}.cls-3{font-size:30.84px;letter-spacing:-0.12em;}.cls-3,.cls-4,.cls-6,.cls-7{font-family:Helvetica-Bold, Helvetica;font-weight:700;}.cls-4{font-size:13.27px;}.cls-5{font-size:11.98px;}.cls-5,.cls-8{font-family:Helvetica-Light, Helvetica;font-weight:300;}.cls-7{font-size:17.5px;}.cls-9{letter-spacing:0em;}</style></defs><title>Asset 68</title><g id="Layer_2" data-name="Layer 2"><g id="Sample_Card" data-name="Sample Card"><path class="cls-1" d="M178.58,8.51V241a8.5,8.5,0,0,1-8.51,8.5H8.5A8.49,8.49,0,0,1,0,241V8.51A8.5,8.5,0,0,1,8.5,0H170.07A8.51,8.51,0,0,1,178.58,8.51Z"/><path class="cls-2" d="M76.94,64.33a22.4,22.4,0,0,1-1,5.45,23.57,23.57,0,0,1-5.25,9.77,25,25,0,0,1-13.12,7.14q-5.05,1.13-17.71,1.69v18.23h32v94H99.3V64.33Z"/><path class="cls-2" d="M153.78,63.39q-26,0-36.5,18.32T106.8,133.76q0,33.74,10.48,52t36.5,18.22q15,0,24.8-6V69.46Q168.76,63.39,153.78,63.39ZM169.42,169.7q-3.71,12.45-15.64,12.45T138,169.7q-3.85-12.45-3.86-35.94,0-24.61,3.86-36.45t15.78-11.84q11.92,0,15.64,11.84t3.71,36.45Q173.13,157.25,169.42,169.7Z"/><text class="cls-3" transform="translate(26.94 32.27)">10</text><text class="cls-3" transform="translate(151.48 217.59) rotate(180)">10</text><text class="cls-4" transform="translate(143.09 19.96)">TEN<tspan class="cls-5"><tspan x="-57.96" y="12.39">OF</tspan><tspan class="cls-6" x="-41.98" y="12.39" xml:space="preserve"> DIAMONDS</tspan></tspan></text><text class="cls-7" transform="translate(20.38 239.67) rotate(-90)">TEN <tspan class="cls-8" x="39.85" y="0">OF</tspan><tspan class="cls-9" x="63.19" y="0" xml:space="preserve"> DIAMONDS</tspan></text><path class="cls-2" d="M24.33,20.93a29.37,29.37,0,0,0-7.64,11.5,29.37,29.37,0,0,0-7.64-11.5A29.27,29.27,0,0,0,16.69,9.44,29.27,29.27,0,0,0,24.33,20.93Z"/><path class="cls-2" d="M170.33,228.93a29.37,29.37,0,0,0-7.64,11.5,29.37,29.37,0,0,0-7.64-11.5,29.27,29.27,0,0,0,7.64-11.49A29.27,29.27,0,0,0,170.33,228.93Z"/></g></g></svg>