<svg xmlns="http://www.w3.org/2000/svg" viewBox="0 0 178.58 249.45"><defs><style>.cls-1,.cls-2,.cls-3,.cls-7{fill:#fff;}.cls-2{font-size:30.84px;letter-spacing:-0.12em;}.cls-2,.cls-3,.cls-5,.cls-6,.cls-7{font-family:Helvetica-Bold, Helvetica;font-weight:700;}.cls-3{font-size:13.27px;}.cls-4{font-size:11.98px;}.cls-4,.cls-8{font-family:Helvetica-Light, Helvetica;font-weight:300;}.cls-6{letter-spacing:-0.07em;}.cls-7{font-size:17.5px;}.cls-9{letter-spacing:0em;}.cls-10{letter-spacing:-0.07em;}.cls-11{letter-spacing:0em;}</style></defs><title>Asset 44</title><g id="Layer_2" data-name="Layer 2"><g id="Sample_Card" data-name="Sample Card"><path d="M178.58,8.5V240.94a8.51,8.51,0,0,1-8.51,8.51H8.5A8.5,8.5,0,0,1,0,240.94V8.5A8.49,8.49,0,0,1,8.5,0H170.07A8.5,8.5,0,0,1,178.58,8.5Z"/><path class="cls-1" d="M76.94,64.32a22.31,22.31,0,0,1-1,5.45,23.57,23.57,0,0,1-5.25,9.77,25,25,0,0,1-13.12,7.14q-5.05,1.13-17.71,1.69V106.6h32v94H99.3V64.32Z"/><path class="cls-1" d="M153.78,63.38q-26,0-36.5,18.32T106.8,133.75q0,33.74,10.48,52t36.5,18.23q15,0,24.8-6V69.45Q168.76,63.38,153.78,63.38Zm15.64,106.31q-3.71,12.45-15.64,12.45T138,169.69q-3.85-12.45-3.86-35.94,0-24.61,3.86-36.45t15.78-11.84q11.92,0,15.64,11.84t3.71,36.45Q173.13,157.24,169.42,169.69Z"/><text class="cls-2" transform="translate(31.94 32.27)">10 </text><text class="cls-2" transform="translate(146.48 217.58) rotate(180)">10</text><text class="cls-3" transform="translate(143.09 19.95)">TEN<tspan class="cls-4"><tspan x="-41.12" y="12.39">OF</tspan><tspan class="cls-5" x="-25.15" y="12.39" xml:space="preserve"> S</tspan><tspan class="cls-6" x="-13.83" y="12.39">P</tspan><tspan class="cls-5" x="-6.73" y="12.39">ADES</tspan></tspan></text><text class="cls-7" transform="translate(20.38 239.66) rotate(-90)">TEN <tspan class="cls-8" x="39.85" y="0">OF</tspan><tspan class="cls-9" x="63.19" y="0" xml:space="preserve"> S</tspan><tspan class="cls-10" x="79.72" y="0">P</tspan><tspan class="cls-11" x="90.1" y="0">ADES</tspan></text><path class="cls-1" d="M26.41,31.63v.46H9.34v-.46h.08a8.48,8.48,0,0,0,8.46-8.5,8.47,8.47,0,0,0,8.45,8.5Z"/><path class="cls-1" d="M27.63,22.54c0,2.28-2.18,4.12-4.88,4.12s-4.87-1.84-4.87-4.12c0,2.28-2.19,4.12-4.88,4.12s-4.88-1.84-4.88-4.12v0c0-5.08,7.83-8.5,9.75-14.19,1.85,5.47,9.17,8.85,9.71,13.63A4,4,0,0,1,27.63,22.54Z"/><path class="cls-1" d="M152.34,217.77v-.46h17.07v.46h-.08a8.48,8.48,0,0,0-8.46,8.5,8.48,8.48,0,0,0-8.45-8.5Z"/><path class="cls-1" d="M151.12,226.86c0-2.27,2.18-4.12,4.88-4.12s4.88,1.85,4.88,4.12c0-2.27,2.18-4.12,4.87-4.12s4.88,1.85,4.88,4.12v0c0,5.09-7.83,8.5-9.75,14.19-1.85-5.47-9.17-8.84-9.71-13.63A3.83,3.83,0,0,1,151.12,226.86Z"/></g></g></svg>