<svg xmlns="http://www.w3.org/2000/svg" viewBox="0 0 178.59 249.45"><defs><style>.cls-1,.cls-2,.cls-3,.cls-6{fill:#fff;}.cls-2{font-size:30.84px;letter-spacing:-0.12em;}.cls-2,.cls-3,.cls-5,.cls-6{font-family:Helvetica-Bold, Helvetica;font-weight:700;}.cls-3{font-size:13.27px;}.cls-4{font-size:11.98px;}.cls-4,.cls-7{font-family:Helvetica-Light, Helvetica;font-weight:300;}.cls-6{font-size:17.5px;}</style></defs><title>Asset 45</title><g id="Layer_2" data-name="Layer 2"><g id="Sample_Card" data-name="Sample Card"><path d="M178.59,8.5V240.94a8.51,8.51,0,0,1-8.51,8.51H8.51A8.51,8.51,0,0,1,0,240.94V8.5A8.5,8.5,0,0,1,8.51,0H170.08A8.5,8.5,0,0,1,178.59,8.5Z"/><path class="cls-1" d="M152.6,63.06v96.87c0,6.71-.62,11.46-1.85,14.28q-3.09,7.14-12.71,7.14t-12.67-6.53q-3-6.52-3.31-22.59V149H94.72v3.2q0,24.42,9,38.57t35.37,14.14q26.37,0,36.47-17.48a36.64,36.64,0,0,0,3-6.82V63.06Z"/><text class="cls-2" transform="translate(31.94 32.27)">J</text><text class="cls-2" transform="translate(146.49 217.58) rotate(180)">J </text><text class="cls-3" transform="translate(133.5 19.95)">JACK<tspan class="cls-4"><tspan x="-24.42" y="12.39">OF</tspan><tspan class="cls-5" x="-8.44" y="12.39" xml:space="preserve"> CLUBS</tspan></tspan></text><text class="cls-6" transform="translate(20.39 239.66) rotate(-90)">JACK <tspan class="cls-7" x="52.5" y="0">OF</tspan><tspan x="75.83" y="0" xml:space="preserve"> CLUBS</tspan></text><ellipse class="cls-1" cx="13.11" cy="23.66" rx="5.58" ry="4.94" transform="translate(-8.77 7.76) rotate(-25.01)"/><ellipse class="cls-1" cx="24.17" cy="23.62" rx="4.94" ry="5.58" transform="translate(-7.46 35.54) rotate(-64.99)"/><circle class="cls-1" cx="18.64" cy="14.82" r="5.83"/><circle class="cls-1" cx="18.64" cy="21.39" r="2.64"/><path class="cls-1" d="M27,32.15v.45H10.31v-.45h.07a8.28,8.28,0,0,0,8.26-8.29,8.27,8.27,0,0,0,8.25,8.29Z"/><ellipse class="cls-1" cx="165.25" cy="226.19" rx="5.58" ry="4.94" transform="translate(-80.13 91.07) rotate(-25.01)"/><ellipse class="cls-1" cx="154.19" cy="226.22" rx="4.94" ry="5.58" transform="translate(-116.01 270.31) rotate(-64.99)"/><circle class="cls-1" cx="159.72" cy="235.03" r="5.83"/><circle class="cls-1" cx="159.72" cy="228.45" r="2.64"/><path class="cls-1" d="M151.39,217.7v-.45h16.66v.45H168a8.27,8.27,0,0,0-8.25,8.29,8.28,8.28,0,0,0-8.26-8.29Z"/></g></g></svg>