<svg xmlns="http://www.w3.org/2000/svg" viewBox="0 0 178.59 249.45"><defs><style>.cls-1{fill:#e31c24;}.cls-2,.cls-3,.cls-4,.cls-7{fill:#fff;}.cls-3{font-size:30.84px;letter-spacing:-0.12em;}.cls-3,.cls-4,.cls-6,.cls-7{font-family:Helvetica-Bold, Helvetica;font-weight:700;}.cls-4{font-size:13.27px;}.cls-5{font-size:11.98px;}.cls-5,.cls-8{font-family:Helvetica-Light, Helvetica;font-weight:300;}.cls-7{font-size:17.5px;}</style></defs><title>Asset 69</title><g id="Layer_2" data-name="Layer 2"><g id="Sample_Card" data-name="Sample Card"><path class="cls-1" d="M178.59,8.51V241a8.5,8.5,0,0,1-8.51,8.5H8.51A8.5,8.5,0,0,1,0,241V8.51A8.51,8.51,0,0,1,8.51,0H170.08A8.51,8.51,0,0,1,178.59,8.51Z"/><path class="cls-2" d="M152.6,62.07v96.87q0,10-1.85,14.28-3.09,7.14-12.71,7.14t-12.67-6.53q-3-6.53-3.31-22.6V148H94.72v3.19q0,24.44,9,38.57t35.37,14.14q26.37,0,36.47-17.47a37,37,0,0,0,3-6.83V62.07Z"/><text class="cls-3" transform="translate(26.94 32.27)">J</text><text class="cls-3" transform="translate(151.48 217.59) rotate(180)">J</text><text class="cls-4" transform="translate(133.5 19.96)">JACK<tspan class="cls-5"><tspan x="-48.37" y="12.39">OF</tspan><tspan class="cls-6" x="-32.39" y="12.39" xml:space="preserve"> DIAMONDS</tspan></tspan></text><text class="cls-7" transform="translate(20.39 239.67) rotate(-90)">JACK <tspan class="cls-8" x="52.5" y="0">OF</tspan><tspan x="75.83" y="0" xml:space="preserve"> DIAMONDS</tspan></text><path class="cls-2" d="M24.34,20.93a29.16,29.16,0,0,0-7.64,11.5,29.37,29.37,0,0,0-7.64-11.5A29.27,29.27,0,0,0,16.7,9.44,29.05,29.05,0,0,0,24.34,20.93Z"/><path class="cls-2" d="M170.34,228.93a29.16,29.16,0,0,0-7.64,11.5,29.37,29.37,0,0,0-7.64-11.5,29.27,29.27,0,0,0,7.64-11.49A29.05,29.05,0,0,0,170.34,228.93Z"/></g></g></svg>