<svg xmlns="http://www.w3.org/2000/svg" viewBox="0 0 178.59 249.45"><defs><style>.cls-1,.cls-2,.cls-3,.cls-7{fill:#fff;}.cls-2{font-size:30.84px;letter-spacing:-0.12em;}.cls-2,.cls-3,.cls-5,.cls-6,.cls-7{font-family:Helvetica-Bold, Helvetica;font-weight:700;}.cls-3{font-size:13.27px;}.cls-4{font-size:11.98px;}.cls-4,.cls-8{font-family:Helvetica-Light, Helvetica;font-weight:300;}.cls-6{letter-spacing:-0.07em;}.cls-7{font-size:17.5px;}.cls-9{letter-spacing:-0.07em;}.cls-10{letter-spacing:0em;}</style></defs><title>Asset 48</title><g id="Layer_2" data-name="Layer 2"><g id="Sample_Card" data-name="Sample Card"><path d="M178.59,8.5V240.94a8.51,8.51,0,0,1-8.51,8.51H8.51A8.51,8.51,0,0,1,0,240.94V8.5A8.5,8.5,0,0,1,8.51,0H170.08A8.5,8.5,0,0,1,178.59,8.5Z"/><path class="cls-1" d="M152.6,62.06v96.87c0,6.71-.62,11.46-1.85,14.28q-3.09,7.14-12.71,7.14t-12.67-6.53q-3-6.52-3.31-22.59V148H94.72v3.2q0,24.42,9,38.57t35.37,14.14q26.37,0,36.47-17.48a36.64,36.64,0,0,0,3-6.82V62.06Z"/><text class="cls-2" transform="translate(31.94 32.27)">J</text><text class="cls-2" transform="translate(146.49 217.58) rotate(180)">J</text><text class="cls-3" transform="translate(133.5 19.95)">JACK<tspan class="cls-4"><tspan x="-31.53" y="12.39">OF</tspan><tspan class="cls-5" x="-15.56" y="12.39" xml:space="preserve"> S</tspan><tspan class="cls-6" x="-4.24" y="12.39">P</tspan><tspan class="cls-5" x="2.86" y="12.39">ADES</tspan></tspan></text><text class="cls-7" transform="translate(20.39 239.66) rotate(-90)">JACK <tspan class="cls-8" x="52.5" y="0">OF</tspan><tspan x="75.83" y="0" xml:space="preserve"> S</tspan><tspan class="cls-9" x="92.37" y="0">P</tspan><tspan class="cls-10" x="102.75" y="0">ADES</tspan></text><path class="cls-1" d="M26.42,31.63v.46H9.35v-.46h.08a8.47,8.47,0,0,0,8.45-8.5,8.48,8.48,0,0,0,8.46,8.5Z"/><path class="cls-1" d="M27.64,22.54c0,2.28-2.19,4.12-4.88,4.12s-4.88-1.84-4.88-4.12c0,2.28-2.18,4.12-4.88,4.12s-4.87-1.84-4.87-4.12v0c0-5.08,7.83-8.5,9.74-14.19,1.86,5.47,9.18,8.85,9.72,13.63A4,4,0,0,1,27.64,22.54Z"/><path class="cls-1" d="M152.35,217.77v-.46h17.06v.46h-.07a8.48,8.48,0,0,0-8.46,8.5,8.48,8.48,0,0,0-8.46-8.5Z"/><path class="cls-1" d="M151.13,226.86c0-2.27,2.18-4.12,4.87-4.12s4.88,1.85,4.88,4.12c0-2.27,2.19-4.12,4.88-4.12s4.88,1.85,4.88,4.12v0c0,5.09-7.83,8.5-9.75,14.19-1.85-5.47-9.18-8.84-9.71-13.63A2.92,2.92,0,0,1,151.13,226.86Z"/></g></g></svg>