<svg xmlns="http://www.w3.org/2000/svg" viewBox="0 0 178.58 249.45"><defs><style>.cls-1,.cls-2,.cls-3,.cls-6{fill:#fff;}.cls-2{font-size:30.84px;letter-spacing:-0.12em;}.cls-2,.cls-3,.cls-5,.cls-6{font-family:Helvetica-Bold, Helvetica;font-weight:700;}.cls-3{font-size:13.27px;}.cls-4{font-size:11.98px;}.cls-4,.cls-7{font-family:Helvetica-Light, Helvetica;font-weight:300;}.cls-6{font-size:17.5px;}</style></defs><title>Asset 49</title><g id="Layer_2" data-name="Layer 2"><g id="Sample_Card" data-name="Sample Card"><path d="M178.58,8.5V240.94a8.51,8.51,0,0,1-8.5,8.51H8.5A8.51,8.51,0,0,1,0,240.94V8.5A8.5,8.5,0,0,1,8.5,0H170.08A8.5,8.5,0,0,1,178.58,8.5Z"/><path class="cls-1" d="M175.69,75.65q-18.23-16.82-45.1-16.81-26.68,0-44.62,15.88-22,19.44-22,57.4,0,37.68,21.44,57.13,17.68,16.16,44.76,16.16,13,0,22.29-3.12a68.75,68.75,0,0,0,13.17-6.51l12.94,12.29V78.51C177.66,77.53,176.69,76.58,175.69,75.65Zm-10,74.22a65.11,65.11,0,0,1-4.6,11.84l-14.07-13.26L132.19,164l14,13.34a47.66,47.66,0,0,1-6.49,2.35,36.94,36.94,0,0,1-9.58,1.22,34.2,34.2,0,0,1-22.75-8q-14.65-12.32-14.66-40.78,0-24.33,10.24-36.55t27.44-12.21q18.32,0,27.85,12.73t9.54,36A68,68,0,0,1,165.73,149.87Z"/><text class="cls-2" transform="translate(31.94 32.27)">Q</text><text class="cls-2" transform="translate(146.48 217.58) rotate(180)">Q</text><text class="cls-3" transform="translate(122.44 19.95)">QUEEN<tspan class="cls-4"><tspan x="-13.35" y="12.39">OF</tspan><tspan class="cls-5" x="2.62" y="12.39" xml:space="preserve"> CLUBS</tspan></tspan></text><text class="cls-6" transform="translate(20.39 239.66) rotate(-90)">QUEEN <tspan class="cls-7" x="67.08" y="0">OF</tspan><tspan x="90.42" y="0" xml:space="preserve"> CLUBS</tspan></text><ellipse class="cls-1" cx="13.1" cy="23.66" rx="5.58" ry="4.94" transform="translate(-8.77 7.76) rotate(-25.01)"/><ellipse class="cls-1" cx="24.16" cy="23.62" rx="4.94" ry="5.58" transform="translate(-7.46 35.53) rotate(-64.99)"/><circle class="cls-1" cx="18.63" cy="14.82" r="5.83"/><circle class="cls-1" cx="18.63" cy="21.39" r="2.64"/><path class="cls-1" d="M27,32.15v.45H10.3v-.45h.08a8.27,8.27,0,0,0,8.25-8.29,8.28,8.28,0,0,0,8.26,8.29Z"/><ellipse class="cls-1" cx="165.25" cy="226.19" rx="5.58" ry="4.94" transform="translate(-80.13 91.07) rotate(-25.01)"/><ellipse class="cls-1" cx="154.19" cy="226.22" rx="4.94" ry="5.58" transform="translate(-116.01 270.31) rotate(-64.99)"/><circle class="cls-1" cx="159.72" cy="235.03" r="5.83"/><circle class="cls-1" cx="159.72" cy="228.45" r="2.64"/><path class="cls-1" d="M151.39,217.7v-.45h16.66v.45H168a8.27,8.27,0,0,0-8.25,8.29,8.28,8.28,0,0,0-8.26-8.29Z"/></g></g></svg>