<svg xmlns="http://www.w3.org/2000/svg" viewBox="0 0 178.58 249.45"><defs><style>.cls-1{fill:#e31c24;}.cls-2,.cls-3,.cls-4,.cls-7{fill:#fff;}.cls-3{font-size:30.84px;letter-spacing:-0.12em;}.cls-3,.cls-4,.cls-6,.cls-7{font-family:Helvetica-Bold, Helvetica;font-weight:700;}.cls-4{font-size:13.27px;}.cls-5{font-size:11.98px;}.cls-5,.cls-8{font-family:Helvetica-Light, Helvetica;font-weight:300;}.cls-7{font-size:17.5px;}</style></defs><title>Asset 70</title><g id="Layer_2" data-name="Layer 2"><g id="Sample_Card" data-name="Sample Card"><path class="cls-1" d="M178.58,8.51V241a8.5,8.5,0,0,1-8.5,8.5H8.5A8.5,8.5,0,0,1,0,241V8.51A8.51,8.51,0,0,1,8.5,0H170.08A8.51,8.51,0,0,1,178.58,8.51Z"/><path class="cls-2" d="M175.69,74.66q-18.23-16.81-45.1-16.82-26.68,0-44.62,15.88Q64,93.18,64,131.13q0,37.68,21.44,57.12,17.68,16.17,44.76,16.16,13,0,22.29-3.11a70,70,0,0,0,13.17-6.51l12.94,12.29V77.51C177.65,76.53,176.69,75.58,175.69,74.66Zm-10,74.22a65.05,65.05,0,0,1-4.6,11.83l-14.07-13.25L132.19,163l14,13.33a47.93,47.93,0,0,1-6.49,2.36,37.38,37.38,0,0,1-9.58,1.22,34.16,34.16,0,0,1-22.75-8q-14.65-12.3-14.66-40.77,0-24.33,10.24-36.55t27.44-12.21q18.32,0,27.85,12.73t9.54,36A68.05,68.05,0,0,1,165.73,148.88Z"/><text class="cls-3" transform="translate(26.94 32.27)">Q</text><text class="cls-3" transform="translate(151.48 217.59) rotate(180)">Q</text><text class="cls-4" transform="translate(122.44 19.96)">QUEEN<tspan class="cls-5"><tspan x="-37.3" y="12.39">OF</tspan><tspan class="cls-6" x="-21.33" y="12.39" xml:space="preserve"> DIAMONDS</tspan></tspan></text><text class="cls-7" transform="translate(20.39 239.67) rotate(-90)">QUEEN <tspan class="cls-8" x="67.08" y="0">OF</tspan><tspan x="90.42" y="0" xml:space="preserve"> DIAMONDS</tspan></text><path class="cls-2" d="M24.33,20.93a29.37,29.37,0,0,0-7.64,11.5,29.16,29.16,0,0,0-7.64-11.5A29.05,29.05,0,0,0,16.69,9.44,29.27,29.27,0,0,0,24.33,20.93Z"/><path class="cls-2" d="M170.33,228.93a29.37,29.37,0,0,0-7.64,11.5,29.16,29.16,0,0,0-7.64-11.5,29.05,29.05,0,0,0,7.64-11.49A29.27,29.27,0,0,0,170.33,228.93Z"/></g></g></svg>