<svg xmlns="http://www.w3.org/2000/svg" viewBox="0 0 178.58 249.45"><defs><style>.cls-1{fill:#e31c24;}.cls-2,.cls-3,.cls-4,.cls-7{fill:#fff;}.cls-3{font-size:30.84px;letter-spacing:-0.12em;}.cls-3,.cls-4,.cls-6,.cls-7{font-family:Helvetica-Bold, Helvetica;font-weight:700;}.cls-4{font-size:13.27px;}.cls-5{font-size:11.98px;}.cls-5,.cls-8{font-family:Helvetica-Light, Helvetica;font-weight:300;}.cls-7{font-size:17.5px;}</style></defs><title>Asset 51</title><g id="Layer_2" data-name="Layer 2"><g id="Sample_Card" data-name="Sample Card"><rect class="cls-1" width="178.58" height="249.45" rx="8.5"/><path class="cls-2" d="M175.69,74.66q-18.23-16.81-45.1-16.82-26.68,0-44.62,15.88-22,19.44-22,57.4,0,37.68,21.44,57.13,17.68,16.16,44.76,16.16,13,0,22.29-3.11a70,70,0,0,0,13.17-6.51l12.94,12.28V77.51C177.65,76.53,176.69,75.58,175.69,74.66Zm-10,74.21a65.11,65.11,0,0,1-4.6,11.84l-14.07-13.26L132.19,163l14,13.33a47.66,47.66,0,0,1-6.49,2.35,37,37,0,0,1-9.58,1.23,34.16,34.16,0,0,1-22.75-8q-14.65-12.3-14.66-40.78,0-24.33,10.24-36.54t27.44-12.22q18.32,0,27.85,12.73t9.54,36A68,68,0,0,1,165.73,148.87Z"/><text class="cls-3" transform="translate(31.94 32.27)">Q</text><path class="cls-2" d="M7.48,14.64a5.33,5.33,0,0,1,10.66,0,5.33,5.33,0,1,1,10.65,0v0c0,6.58-8.55,11-10.64,18.33-2-7.06-10-11.42-10.61-17.6A4.9,4.9,0,0,1,7.48,14.64Z"/><text class="cls-3" transform="translate(146.48 217.58) rotate(180)">Q</text><path class="cls-2" d="M170.94,235.21a5.33,5.33,0,1,1-10.65,0,5.33,5.33,0,1,1-10.66,0v0c0-6.57,8.55-11,10.65-18.33,2,7.07,10,11.42,10.6,17.6A4.9,4.9,0,0,1,170.94,235.21Z"/><text class="cls-4" transform="translate(122.44 19.96)">QUEEN<tspan class="cls-5"><tspan x="-21.34" y="12.39">OF</tspan><tspan class="cls-6" x="-5.36" y="12.39" xml:space="preserve"> HEARTS</tspan></tspan></text><text class="cls-7" transform="translate(20.39 239.66) rotate(-90)">QUEEN <tspan class="cls-8" x="67.08" y="0">OF</tspan><tspan x="90.42" y="0" xml:space="preserve"> HEARTS</tspan></text></g></g></svg>