<svg xmlns="http://www.w3.org/2000/svg" viewBox="0 0 178.58 249.45"><defs><style>.cls-1,.cls-2,.cls-3,.cls-7{fill:#fff;}.cls-2{font-size:30.84px;letter-spacing:-0.12em;}.cls-2,.cls-3,.cls-5,.cls-6,.cls-7{font-family:Helvetica-Bold, Helvetica;font-weight:700;}.cls-3{font-size:13.27px;}.cls-4{font-size:11.98px;}.cls-4,.cls-8{font-family:Helvetica-Light, Helvetica;font-weight:300;}.cls-6{letter-spacing:-0.07em;}.cls-7{font-size:17.5px;}.cls-9{letter-spacing:-0.07em;}</style></defs><title>Asset 52</title><g id="Layer_2" data-name="Layer 2"><g id="Sample_Card" data-name="Sample Card"><path d="M178.58,8.5V240.94a8.51,8.51,0,0,1-8.5,8.51H8.5A8.51,8.51,0,0,1,0,240.94V8.5A8.5,8.5,0,0,1,8.5,0H170.08A8.5,8.5,0,0,1,178.58,8.5Z"/><path class="cls-1" d="M175.69,74.65q-18.23-16.82-45.1-16.81-26.68,0-44.62,15.88-22,19.44-22,57.4,0,37.68,21.44,57.13,17.68,16.16,44.76,16.16,13,0,22.29-3.12a68.75,68.75,0,0,0,13.17-6.51l12.94,12.29V77.51C177.66,76.53,176.69,75.58,175.69,74.65Zm-10,74.22a65.11,65.11,0,0,1-4.6,11.84l-14.07-13.26L132.19,163l14,13.34a47.66,47.66,0,0,1-6.49,2.35,36.94,36.94,0,0,1-9.58,1.22,34.2,34.2,0,0,1-22.75-8q-14.65-12.32-14.66-40.78,0-24.33,10.24-36.55t27.44-12.21q18.32,0,27.85,12.73t9.54,36A68,68,0,0,1,165.73,148.87Z"/><text class="cls-2" transform="translate(31.94 32.27)">Q </text><text class="cls-2" transform="translate(146.48 217.58) rotate(180)">Q</text><text class="cls-3" transform="translate(122.44 19.95)">QUEEN<tspan class="cls-4"><tspan x="-20.47" y="12.39">OF</tspan><tspan class="cls-5" x="-4.49" y="12.39" xml:space="preserve"> S</tspan><tspan class="cls-6" x="6.82" y="12.39">P</tspan><tspan class="cls-5" x="13.93" y="12.39">ADES</tspan></tspan></text><text class="cls-7" transform="translate(20.39 239.66) rotate(-90)">QUEEN <tspan class="cls-8" x="67.08" y="0">OF</tspan><tspan x="90.42" y="0" xml:space="preserve"> S</tspan><tspan class="cls-9" x="106.95" y="0">P</tspan><tspan x="117.33" y="0">ADES</tspan></text><path class="cls-1" d="M26.41,31.63v.46H9.35v-.46h.07a8.48,8.48,0,0,0,8.46-8.5,8.48,8.48,0,0,0,8.46,8.5Z"/><path class="cls-1" d="M27.63,22.54c0,2.28-2.18,4.12-4.87,4.12s-4.88-1.84-4.88-4.12c0,2.28-2.18,4.12-4.88,4.12s-4.88-1.84-4.88-4.12v0c0-5.08,7.83-8.5,9.75-14.19,1.85,5.47,9.18,8.85,9.71,13.63A3,3,0,0,1,27.63,22.54Z"/><path class="cls-1" d="M152.34,217.77v-.46h17.07v.46h-.08a8.48,8.48,0,0,0-8.45,8.5,8.48,8.48,0,0,0-8.46-8.5Z"/><path class="cls-1" d="M151.12,226.86c0-2.27,2.19-4.12,4.88-4.12s4.88,1.85,4.88,4.12c0-2.27,2.18-4.12,4.88-4.12s4.87,1.85,4.87,4.12v0c0,5.09-7.82,8.5-9.74,14.19-1.85-5.47-9.18-8.84-9.72-13.63A3.83,3.83,0,0,1,151.12,226.86Z"/></g></g></svg>