<svg xmlns="http://www.w3.org/2000/svg" viewBox="0 0 178.58 249.45"><defs><style>.cls-1{fill:#e31c24;}.cls-2,.cls-3,.cls-4,.cls-7{fill:#fff;}.cls-3{font-size:30.84px;letter-spacing:-0.12em;}.cls-3,.cls-4,.cls-6,.cls-7{font-family:Helvetica-Bold, Helvetica;font-weight:700;}.cls-4{font-size:13.27px;}.cls-5{font-size:11.98px;}.cls-5,.cls-8{font-family:Helvetica-Light, Helvetica;font-weight:300;}.cls-7{font-size:17.5px;}</style></defs><title>Asset 55</title><g id="Layer_2" data-name="Layer 2"><g id="Sample_Card" data-name="Sample Card"><path class="cls-1" d="M178.58,8.5V241a8.51,8.51,0,0,1-8.51,8.5H8.5A8.5,8.5,0,0,1,0,241V8.5A8.5,8.5,0,0,1,8.5,0H170.07A8.51,8.51,0,0,1,178.58,8.5Z"/><path class="cls-2" d="M178.58,62.08l-53.5,57.05V62.07H96.61V200.56h28.47V154.24L139,140.1l39.56,56.05V145.54L159.15,119l19.43-19.47Z"/><text class="cls-3" transform="translate(31.94 32.27)">K</text><path class="cls-2" d="M7.48,14.64a5.33,5.33,0,1,1,10.65,0,5.33,5.33,0,1,1,10.65,0v0c0,6.58-8.54,11-10.64,18.33-2-7.06-10-11.42-10.61-17.6A6.49,6.49,0,0,1,7.48,14.64Z"/><text class="cls-3" transform="translate(146.48 217.58) rotate(180)">K</text><path class="cls-2" d="M170.94,235.21a5.33,5.33,0,1,1-10.66,0,5.33,5.33,0,1,1-10.65,0v0c0-6.57,8.55-11,10.64-18.33,2,7.07,10,11.42,10.61,17.6A4.9,4.9,0,0,1,170.94,235.21Z"/><text class="cls-4" transform="translate(136.45 19.96)">KING<tspan class="cls-5"><tspan x="-35.36" y="12.39">OF</tspan><tspan class="cls-6" x="-19.38" y="12.39" xml:space="preserve"> HEARTS</tspan></tspan></text><text class="cls-7" transform="translate(20.38 239.66) rotate(-90)">KING <tspan class="cls-8" x="48.6" y="0">OF</tspan><tspan x="71.94" y="0" xml:space="preserve"> HEARTS</tspan></text></g></g></svg>