<svg xmlns="http://www.w3.org/2000/svg" viewBox="0 0 178.58 249.45"><defs><style>.cls-1,.cls-2,.cls-3,.cls-7{fill:#fff;}.cls-2{font-size:30.84px;letter-spacing:-0.12em;}.cls-2,.cls-3,.cls-5,.cls-6,.cls-7{font-family:Helvetica-Bold, Helvetica;font-weight:700;}.cls-3{font-size:13.27px;}.cls-4{font-size:11.98px;}.cls-4,.cls-8{font-family:Helvetica-Light, Helvetica;font-weight:300;}.cls-6{letter-spacing:-0.07em;}.cls-7{font-size:17.5px;}.cls-9{letter-spacing:-0.07em;}.cls-10{letter-spacing:0em;}</style></defs><title>Asset 56</title><g id="Layer_2" data-name="Layer 2"><g id="Sample_Card" data-name="Sample Card"><path d="M178.58,8.5V240.94a8.51,8.51,0,0,1-8.51,8.51H8.5A8.5,8.5,0,0,1,0,240.94V8.5A8.49,8.49,0,0,1,8.5,0H170.07A8.5,8.5,0,0,1,178.58,8.5Z"/><path class="cls-1" d="M178.58,62.07l-53.5,57.06V62.06H96.61V200.55h28.47V154.23L139,140.1l39.56,56V145.53L159.15,119l19.43-19.47Z"/><text class="cls-2" transform="translate(31.94 32.27)">K</text><text class="cls-2" transform="translate(146.48 217.58) rotate(180)">K</text><text class="cls-3" transform="translate(136.45 19.95)">KING<tspan class="cls-4"><tspan x="-34.49" y="12.39">OF</tspan><tspan class="cls-5" x="-18.51" y="12.39" xml:space="preserve"> S</tspan><tspan class="cls-6" x="-7.2" y="12.39">P</tspan><tspan class="cls-5" x="-0.09" y="12.39">ADES</tspan></tspan></text><text class="cls-7" transform="translate(20.38 239.66) rotate(-90)">KING <tspan class="cls-8" x="48.6" y="0">OF</tspan><tspan x="71.94" y="0" xml:space="preserve"> S</tspan><tspan class="cls-9" x="88.47" y="0">P</tspan><tspan class="cls-10" x="98.85" y="0">ADES</tspan></text><path class="cls-1" d="M26.41,31.63v.46H9.34v-.46h.08a8.48,8.48,0,0,0,8.46-8.5,8.47,8.47,0,0,0,8.45,8.5Z"/><path class="cls-1" d="M27.63,22.54c0,2.28-2.18,4.12-4.88,4.12s-4.87-1.84-4.87-4.12c0,2.28-2.19,4.12-4.88,4.12s-4.88-1.84-4.88-4.12v0c0-5.08,7.83-8.5,9.75-14.19,1.85,5.47,9.17,8.85,9.71,13.63A4,4,0,0,1,27.63,22.54Z"/><path class="cls-1" d="M152.34,217.77v-.46h17.07v.46h-.08a8.48,8.48,0,0,0-8.46,8.5,8.48,8.48,0,0,0-8.45-8.5Z"/><path class="cls-1" d="M151.12,226.86c0-2.27,2.18-4.12,4.88-4.12s4.88,1.85,4.88,4.12c0-2.27,2.18-4.12,4.87-4.12s4.88,1.85,4.88,4.12v0c0,5.09-7.83,8.5-9.75,14.19-1.85-5.47-9.17-8.84-9.71-13.63A3.83,3.83,0,0,1,151.12,226.86Z"/></g></g></svg>