<svg xmlns="http://www.w3.org/2000/svg" viewBox="0 0 178.58 249.45"><defs><style>.cls-1,.cls-2,.cls-3,.cls-6{fill:#fff;}.cls-2{font-size:30.84px;letter-spacing:-0.16em;}.cls-2,.cls-3,.cls-5,.cls-6{font-family:Helvetica-Bold, Helvetica;font-weight:700;}.cls-3{font-size:13.27px;}.cls-4{font-size:11.98px;}.cls-4,.cls-7{font-family:Helvetica-Light, Helvetica;font-weight:300;}.cls-6{font-size:17.5px;}</style></defs><title>Asset 3</title><g id="Layer_2" data-name="Layer 2"><g id="Sample_Card" data-name="Sample Card"><path d="M178.58,8.5V240.94a8.51,8.51,0,0,1-8.51,8.51H8.5A8.5,8.5,0,0,1,0,240.94V8.5A8.49,8.49,0,0,1,8.5,0H170.07A8.5,8.5,0,0,1,178.58,8.5Z"/><path class="cls-1" d="M135.49,63.06H102.75L53.31,201.55H83.58L93,173.09h51l9.14,28.46h25.47v-16.7Zm-34.65,86.16,18-54.49,17.5,54.49Z"/><text class="cls-2" transform="translate(31.94 32.27)">A</text><text class="cls-2" transform="translate(146.48 217.58) rotate(180)">A</text><text class="cls-3" transform="translate(141.61 19.95)">ACE<tspan class="cls-4"><tspan x="-32.53" y="12.39">OF</tspan><tspan class="cls-5" x="-16.55" y="12.39" xml:space="preserve"> CLUBS</tspan></tspan></text><text class="cls-6" transform="translate(20.38 239.66) rotate(-90)">ACE <tspan class="cls-7" x="41.8" y="0">OF</tspan><tspan x="65.14" y="0" xml:space="preserve"> CLUBS</tspan></text><ellipse class="cls-1" cx="13.1" cy="23.66" rx="5.58" ry="4.94" transform="translate(-8.77 7.76) rotate(-25.01)"/><ellipse class="cls-1" cx="24.16" cy="23.62" rx="4.94" ry="5.58" transform="translate(-7.46 35.53) rotate(-64.99)"/><circle class="cls-1" cx="18.63" cy="14.82" r="5.83"/><circle class="cls-1" cx="18.63" cy="21.39" r="2.64"/><path class="cls-1" d="M27,32.15v.45H10.3v-.45h.07a8.28,8.28,0,0,0,8.26-8.29,8.28,8.28,0,0,0,8.26,8.29Z"/><ellipse class="cls-1" cx="165.24" cy="226.19" rx="5.58" ry="4.94" transform="translate(-80.13 91.07) rotate(-25.01)"/><ellipse class="cls-1" cx="154.18" cy="226.22" rx="4.94" ry="5.58" transform="translate(-116.01 270.31) rotate(-64.99)"/><circle class="cls-1" cx="159.71" cy="235.03" r="5.83"/><circle class="cls-1" cx="159.71" cy="228.45" r="2.64"/><path class="cls-1" d="M151.38,217.7v-.45H168v.45H168a8.28,8.28,0,0,0-8.26,8.29,8.27,8.27,0,0,0-8.25-8.29Z"/></g></g></svg>