<svg xmlns="http://www.w3.org/2000/svg" viewBox="0 0 178.58 249.45"><defs><style>.cls-1,.cls-2,.cls-3,.cls-6{fill:#fff;}.cls-2{font-size:30.84px;letter-spacing:-0.12em;}.cls-2,.cls-3,.cls-5,.cls-6{font-family:Helvetica-Bold, Helvetica;font-weight:700;}.cls-3{font-size:13.27px;}.cls-4{font-size:11.98px;}.cls-4,.cls-7{font-family:Helvetica-Light, Helvetica;font-weight:300;}.cls-6{font-size:17.5px;}.cls-7{letter-spacing:0em;}.cls-8{letter-spacing:0em;}</style></defs><title>Asset 9</title><g id="Layer_2" data-name="Layer 2"><g id="Sample_Card" data-name="Sample Card"><path d="M178.58,8.5V240.94a8.5,8.5,0,0,1-8.5,8.51H8.5A8.51,8.51,0,0,1,0,240.94V8.5A8.5,8.5,0,0,1,8.5,0H170.08A8.49,8.49,0,0,1,178.58,8.5Z"/><path class="cls-1" d="M127.58,170.55q3.71-3.2,13.78-10.34l10.73-7.61q13.56-9.57,19.49-17.38a42.72,42.72,0,0,0,7-13.32v-28a38.76,38.76,0,0,0-10.76-17.23q-12.78-12-34.42-12-27.37,0-38.09,20.39Q89.67,95.76,89,113.14h26q.48-11.46,3-16.72,4.41-9.12,16.63-9.11,8.93,0,13.72,5.73t4.79,14.37q0,10.62-8.36,19.54-5.46,5.74-24,19Q99.53,161.16,93.8,174.78a63.92,63.92,0,0,0-6.29,26.77h91.07V178H121.33A30.11,30.11,0,0,1,127.58,170.55Z"/><text class="cls-2" transform="translate(31.94 32.27)">2</text><text class="cls-2" transform="translate(146.48 217.58) rotate(180)">2</text><text class="cls-3" transform="translate(138.68 19.95)">TWO<tspan class="cls-4"><tspan x="-29.59" y="12.39">OF</tspan><tspan class="cls-5" x="-13.62" y="12.39" xml:space="preserve"> CLUBS</tspan></tspan></text><text class="cls-6" transform="translate(20.39 239.66) rotate(-90)">TWO <tspan class="cls-7" x="45.67" y="0">OF</tspan><tspan class="cls-8" x="69.01" y="0" xml:space="preserve"> CLUBS</tspan></text><ellipse class="cls-1" cx="13.11" cy="23.66" rx="5.58" ry="4.94" transform="translate(-8.77 7.76) rotate(-25.01)"/><ellipse class="cls-1" cx="24.16" cy="23.62" rx="4.94" ry="5.58" transform="translate(-7.46 35.54) rotate(-64.99)"/><circle class="cls-1" cx="18.64" cy="14.82" r="5.83"/><circle class="cls-1" cx="18.64" cy="21.39" r="2.64"/><path class="cls-1" d="M27,32.15v.45H10.31v-.45h.07a8.28,8.28,0,0,0,8.26-8.29,8.27,8.27,0,0,0,8.25,8.29Z"/><ellipse class="cls-1" cx="165.25" cy="226.19" rx="5.58" ry="4.94" transform="translate(-80.13 91.07) rotate(-25.01)"/><ellipse class="cls-1" cx="154.19" cy="226.22" rx="4.94" ry="5.58" transform="translate(-116.01 270.31) rotate(-64.99)"/><circle class="cls-1" cx="159.72" cy="235.03" r="5.83"/><circle class="cls-1" cx="159.72" cy="228.45" r="2.64"/><path class="cls-1" d="M151.39,217.7v-.45h16.66v.45H168a8.27,8.27,0,0,0-8.25,8.29,8.28,8.28,0,0,0-8.26-8.29Z"/></g></g></svg>