<svg xmlns="http://www.w3.org/2000/svg" viewBox="0 0 178.58 249.45"><defs><style>.cls-1{fill:#e31c24;}.cls-2,.cls-3,.cls-4,.cls-7{fill:#fff;}.cls-3{font-size:30.84px;letter-spacing:-0.12em;}.cls-3,.cls-4,.cls-6,.cls-7{font-family:Helvetica-Bold, Helvetica;font-weight:700;}.cls-4{font-size:13.27px;}.cls-5{font-size:11.98px;}.cls-5,.cls-8{font-family:Helvetica-Light, Helvetica;font-weight:300;}.cls-7{font-size:17.5px;}.cls-8{letter-spacing:0em;}.cls-9{letter-spacing:0em;}</style></defs><title>Asset 60</title><g id="Layer_2" data-name="Layer 2"><g id="Sample_Card" data-name="Sample Card"><path class="cls-1" d="M178.58,8.51V241a8.49,8.49,0,0,1-8.5,8.5H8.5A8.5,8.5,0,0,1,0,241V8.51A8.51,8.51,0,0,1,8.5,0H170.08A8.5,8.5,0,0,1,178.58,8.51Z"/><path class="cls-2" d="M127.58,170.56q3.71-3.19,13.78-10.34l10.73-7.61q13.56-9.59,19.49-17.38a42.83,42.83,0,0,0,7-13.32v-28a38.68,38.68,0,0,0-10.76-17.22q-12.78-12-34.42-12-27.37,0-38.09,20.39Q89.67,95.77,89,113.15h26q.48-11.46,3-16.72,4.41-9.12,16.63-9.12,8.93,0,13.72,5.73t4.79,14.38q0,10.62-8.36,19.54-5.46,5.73-24,19Q99.53,161.17,93.8,174.78a64,64,0,0,0-6.29,26.78h91.07V178H121.33A30.11,30.11,0,0,1,127.58,170.56Z"/><text class="cls-3" transform="translate(26.94 32.27)">2</text><text class="cls-3" transform="translate(151.48 217.59) rotate(180)">2</text><text class="cls-4" transform="translate(138.68 19.96)">TWO<tspan class="cls-5"><tspan x="-53.54" y="12.39">OF</tspan><tspan class="cls-6" x="-37.57" y="12.39" xml:space="preserve"> DIAMONDS</tspan></tspan></text><text class="cls-7" transform="translate(20.39 239.67) rotate(-90)">TWO <tspan class="cls-8" x="45.67" y="0">OF</tspan><tspan class="cls-9" x="69.01" y="0" xml:space="preserve"> DIAMONDS</tspan></text><path class="cls-2" d="M170.34,228.93a29.16,29.16,0,0,0-7.64,11.5,29.29,29.29,0,0,0-7.65-11.5,29.18,29.18,0,0,0,7.65-11.49A29.05,29.05,0,0,0,170.34,228.93Z"/><path class="cls-2" d="M24.21,20.93a29.37,29.37,0,0,0-7.64,11.5,29.37,29.37,0,0,0-7.64-11.5A29.27,29.27,0,0,0,16.57,9.44,29.27,29.27,0,0,0,24.21,20.93Z"/></g></g></svg>