<svg xmlns="http://www.w3.org/2000/svg" viewBox="0 0 178.58 249.45"><defs><style>.cls-1{fill:#e31c24;}.cls-2,.cls-3,.cls-4,.cls-7{fill:#fff;}.cls-3{font-size:30.84px;letter-spacing:-0.12em;}.cls-3,.cls-4,.cls-6,.cls-7{font-family:Helvetica-Bold, Helvetica;font-weight:700;}.cls-4{font-size:13.27px;}.cls-5{font-size:11.98px;}.cls-5,.cls-8{font-family:Helvetica-Light, Helvetica;font-weight:300;}.cls-7{font-size:17.5px;}.cls-8{letter-spacing:0em;}.cls-9{letter-spacing:0em;}</style></defs><title>Asset 11</title><g id="Layer_2" data-name="Layer 2"><g id="Sample_Card" data-name="Sample Card"><path class="cls-1" d="M178.58,8.5V241a8.5,8.5,0,0,1-8.5,8.5H8.5A8.51,8.51,0,0,1,0,241V8.5A8.51,8.51,0,0,1,8.5,0H170.08A8.5,8.5,0,0,1,178.58,8.5Z"/><path class="cls-2" d="M127.58,170.55q3.71-3.2,13.78-10.33l10.73-7.61q13.56-9.59,19.49-17.38a42.83,42.83,0,0,0,7-13.32v-28a38.68,38.68,0,0,0-10.76-17.22q-12.78-12-34.42-12-27.37,0-38.09,20.38-5.64,10.71-6.3,28.1h26q.48-11.48,3-16.73,4.41-9.11,16.63-9.11,8.93,0,13.72,5.73t4.79,14.37q0,10.62-8.36,19.55-5.46,5.73-24,19Q99.53,161.15,93.8,174.78a64,64,0,0,0-6.29,26.78h91.07V178H121.33A30.3,30.3,0,0,1,127.58,170.55Z"/><text class="cls-3" transform="translate(31.94 32.27)">2</text><path class="cls-2" d="M7.48,14.64a5.33,5.33,0,0,1,10.66,0,5.33,5.33,0,1,1,10.65,0v0c0,6.58-8.55,11-10.64,18.33-2-7.06-10-11.42-10.61-17.6A4.9,4.9,0,0,1,7.48,14.64Z"/><text class="cls-3" transform="translate(146.48 217.58) rotate(180)">2</text><path class="cls-2" d="M170.94,235.21a5.33,5.33,0,1,1-10.65,0,5.33,5.33,0,1,1-10.65,0v0c0-6.57,8.54-11,10.64-18.33,2,7.07,10,11.42,10.61,17.6A6.49,6.49,0,0,1,170.94,235.21Z"/><text class="cls-4" transform="translate(138.68 19.96)">TWO<tspan class="cls-5"><tspan x="-37.58" y="12.39">OF</tspan><tspan class="cls-6" x="-21.6" y="12.39" xml:space="preserve"> HEARTS</tspan></tspan></text><text class="cls-7" transform="translate(20.39 239.66) rotate(-90)">TWO <tspan class="cls-8" x="45.67" y="0">OF</tspan><tspan class="cls-9" x="69.01" y="0" xml:space="preserve"> HEARTS</tspan></text></g></g></svg>