<svg xmlns="http://www.w3.org/2000/svg" viewBox="0 0 178.58 249.45"><defs><style>.cls-1,.cls-2,.cls-3,.cls-7{fill:#fff;}.cls-2{font-size:30.84px;letter-spacing:-0.12em;}.cls-2,.cls-3,.cls-5,.cls-6,.cls-7{font-family:Helvetica-Bold, Helvetica;font-weight:700;}.cls-3{font-size:13.27px;}.cls-4{font-size:11.98px;}.cls-4,.cls-8{font-family:Helvetica-Light, Helvetica;font-weight:300;}.cls-6{letter-spacing:-0.07em;}.cls-7{font-size:17.5px;}.cls-8{letter-spacing:0em;}.cls-9{letter-spacing:0em;}.cls-10{letter-spacing:-0.07em;}</style></defs><title>Asset 12</title><g id="Layer_2" data-name="Layer 2"><g id="Sample_Card" data-name="Sample Card"><path d="M178.58,8.5V240.94a8.5,8.5,0,0,1-8.5,8.51H8.5A8.51,8.51,0,0,1,0,240.94V8.5A8.5,8.5,0,0,1,8.5,0H170.08A8.49,8.49,0,0,1,178.58,8.5Z"/><path class="cls-1" d="M127.58,170.55q3.71-3.2,13.78-10.34l10.73-7.61q13.56-9.57,19.49-17.38a42.72,42.72,0,0,0,7-13.32v-28a38.76,38.76,0,0,0-10.76-17.23q-12.78-12-34.42-12-27.37,0-38.09,20.39Q89.67,95.76,89,113.14h26q.48-11.46,3-16.72,4.41-9.12,16.63-9.11,8.93,0,13.72,5.73t4.79,14.37q0,10.62-8.36,19.54-5.46,5.74-24,19Q99.53,161.16,93.8,174.78a63.92,63.92,0,0,0-6.29,26.77h91.07V178H121.33A30.11,30.11,0,0,1,127.58,170.55Z"/><text class="cls-2" transform="translate(31.94 32.27)">2</text><text class="cls-2" transform="translate(146.48 217.58) rotate(180)">2</text><text class="cls-3" transform="translate(138.68 19.95)">TWO<tspan class="cls-4"><tspan x="-36.71" y="12.39">OF</tspan><tspan class="cls-5" x="-20.73" y="12.39" xml:space="preserve"> S</tspan><tspan class="cls-6" x="-9.42" y="12.39">P</tspan><tspan class="cls-5" x="-2.31" y="12.39">ADES</tspan></tspan></text><text class="cls-7" transform="translate(20.39 239.66) rotate(-90)">TWO <tspan class="cls-8" x="45.67" y="0">OF</tspan><tspan class="cls-9" x="69.01" y="0" xml:space="preserve"> S</tspan><tspan class="cls-10" x="85.54" y="0">P</tspan><tspan x="95.92" y="0">ADES</tspan></text><path class="cls-1" d="M26.42,31.63v.46H9.35v-.46h.08a8.47,8.47,0,0,0,8.45-8.5,8.48,8.48,0,0,0,8.46,8.5Z"/><path class="cls-1" d="M27.64,22.54c0,2.28-2.19,4.12-4.88,4.12s-4.88-1.84-4.88-4.12c0,2.28-2.18,4.12-4.88,4.12s-4.87-1.84-4.87-4.12v0c0-5.08,7.82-8.5,9.74-14.19,1.85,5.47,9.18,8.85,9.71,13.63A3.05,3.05,0,0,1,27.64,22.54Z"/><path class="cls-1" d="M152.35,217.77v-.46h17.06v.46h-.07a8.48,8.48,0,0,0-8.46,8.5,8.48,8.48,0,0,0-8.46-8.5Z"/><path class="cls-1" d="M151.13,226.86c0-2.27,2.18-4.12,4.87-4.12s4.88,1.85,4.88,4.12c0-2.27,2.18-4.12,4.88-4.12s4.88,1.85,4.88,4.12v0c0,5.09-7.83,8.5-9.75,14.19-1.85-5.47-9.18-8.84-9.71-13.63A2.92,2.92,0,0,1,151.13,226.86Z"/></g></g></svg>