<svg xmlns="http://www.w3.org/2000/svg" viewBox="0 0 178.58 249.45"><defs><style>.cls-1,.cls-2,.cls-3,.cls-6{fill:#fff;}.cls-2{font-size:30.84px;letter-spacing:-0.12em;}.cls-2,.cls-3,.cls-5,.cls-6{font-family:Helvetica-Bold, Helvetica;font-weight:700;}.cls-3{font-size:13.27px;}.cls-4{font-size:11.98px;}.cls-4,.cls-7{font-family:Helvetica-Light, Helvetica;font-weight:300;}.cls-6{font-size:17.5px;}</style></defs><title>Asset 13</title><g id="Layer_2" data-name="Layer 2"><g id="Sample_Card" data-name="Sample Card"><path d="M178.58,8.5V240.94a8.51,8.51,0,0,1-8.51,8.51H8.5A8.5,8.5,0,0,1,0,240.94V8.5A8.49,8.49,0,0,1,8.5,0H170.07A8.5,8.5,0,0,1,178.58,8.5Z"/><path class="cls-1" d="M170.46,135.5q-6.86-6.28-10.52-6.29a24.33,24.33,0,0,0,9.4-7.05q7.13-8.26,7.14-20.29,0-17-12-27.11T133,64.66a54,54,0,0,0-17.74,2.54,35.79,35.79,0,0,0-12.48,7.33A43.42,43.42,0,0,0,92.48,89.28,67,67,0,0,0,89,108.54h25q-.19-10,4.26-16.07t13.91-6q8.25,0,12.79,4.89T149.51,104q0,12-8.89,16-5.16,2.35-18.17,2.54v19.17q13.3,0,19.48,2.53,10.88,4.51,10.87,17.95,0,10.14-5.86,15.55a19.59,19.59,0,0,1-13.73,5.4q-12.84,0-17.72-9.87-2.62-5.36-2.62-13.53H86.56q.66,16.26,6.57,26.31,11.27,18.88,40.17,18.89,23.47,0,35.44-13.11a45.16,45.16,0,0,0,9.84-16.6V147.92A30.37,30.37,0,0,0,170.46,135.5Z"/><text class="cls-2" transform="translate(31.94 32.27)">3</text><text class="cls-2" transform="translate(146.48 217.58) rotate(180)">3</text><text class="cls-3" transform="translate(124.65 19.95)">THREE<tspan class="cls-4"><tspan x="-15.57" y="12.39">OF</tspan><tspan class="cls-5" x="0.41" y="12.39" xml:space="preserve"> CLUBS</tspan></tspan></text><text class="cls-6" transform="translate(20.38 239.66) rotate(-90)">THREE <tspan class="cls-7" x="64.16" y="0">OF</tspan><tspan x="87.5" y="0" xml:space="preserve"> CLUBS</tspan></text><ellipse class="cls-1" cx="13.1" cy="23.66" rx="5.58" ry="4.94" transform="translate(-8.77 7.76) rotate(-25.01)"/><ellipse class="cls-1" cx="24.16" cy="23.62" rx="4.94" ry="5.58" transform="translate(-7.46 35.53) rotate(-64.99)"/><circle class="cls-1" cx="18.63" cy="14.82" r="5.83"/><circle class="cls-1" cx="18.63" cy="21.39" r="2.64"/><path class="cls-1" d="M27,32.15v.45H10.3v-.45h.07a8.28,8.28,0,0,0,8.26-8.29,8.28,8.28,0,0,0,8.26,8.29Z"/><ellipse class="cls-1" cx="165.24" cy="226.19" rx="5.58" ry="4.94" transform="translate(-80.13 91.07) rotate(-25.01)"/><ellipse class="cls-1" cx="154.18" cy="226.22" rx="4.94" ry="5.58" transform="translate(-116.01 270.31) rotate(-64.99)"/><circle class="cls-1" cx="159.71" cy="235.03" r="5.83"/><circle class="cls-1" cx="159.71" cy="228.45" r="2.64"/><path class="cls-1" d="M151.38,217.7v-.45H168v.45H168a8.28,8.28,0,0,0-8.26,8.29,8.27,8.27,0,0,0-8.25-8.29Z"/></g></g></svg>