<svg xmlns="http://www.w3.org/2000/svg" viewBox="0 0 178.58 249.45"><defs><style>.cls-1{fill:#e31c24;}.cls-2,.cls-3,.cls-4,.cls-7{fill:#fff;}.cls-3{font-size:30.84px;letter-spacing:-0.12em;}.cls-3,.cls-4,.cls-6,.cls-7{font-family:Helvetica-Bold, Helvetica;font-weight:700;}.cls-4{font-size:13.27px;}.cls-5{font-size:11.98px;}.cls-5,.cls-8{font-family:Helvetica-Light, Helvetica;font-weight:300;}.cls-7{font-size:17.5px;}</style></defs><title>Asset 61</title><g id="Layer_2" data-name="Layer 2"><g id="Sample_Card" data-name="Sample Card"><path class="cls-1" d="M178.58,8.51V241a8.5,8.5,0,0,1-8.51,8.5H8.5A8.49,8.49,0,0,1,0,241V8.51A8.5,8.5,0,0,1,8.5,0H170.07A8.51,8.51,0,0,1,178.58,8.51Z"/><path class="cls-2" d="M170.46,135.51q-6.86-6.3-10.52-6.29a24.54,24.54,0,0,0,9.4-7q7.13-8.26,7.14-20.29,0-17-12-27.11T133,64.67a53.74,53.74,0,0,0-17.74,2.54,35.92,35.92,0,0,0-12.48,7.32A43.36,43.36,0,0,0,92.48,89.29,67,67,0,0,0,89,108.55h25q-.19-10.06,4.26-16.07t13.91-6q8.25,0,12.79,4.88T149.51,104q0,12-8.89,16-5.16,2.34-18.17,2.53v19.17q13.3,0,19.48,2.54,10.88,4.5,10.87,17.94,0,10.16-5.86,15.55a19.56,19.56,0,0,1-13.73,5.41q-12.84,0-17.72-9.87-2.62-5.35-2.62-13.53H86.56q.66,16.26,6.57,26.31,11.27,18.88,40.17,18.88,23.47,0,35.44-13.1a45.16,45.16,0,0,0,9.84-16.6V147.93A30.37,30.37,0,0,0,170.46,135.51Z"/><text class="cls-3" transform="translate(26.94 32.27)">3</text><text class="cls-3" transform="translate(151.48 217.59) rotate(180)">3</text><text class="cls-4" transform="translate(124.65 19.96)">THREE<tspan class="cls-5"><tspan x="-39.52" y="12.39">OF</tspan><tspan class="cls-6" x="-23.54" y="12.39" xml:space="preserve"> DIAMONDS</tspan></tspan></text><text class="cls-7" transform="translate(20.38 239.67) rotate(-90)">THREE <tspan class="cls-8" x="64.16" y="0">OF</tspan><tspan x="87.5" y="0" xml:space="preserve"> DIAMONDS</tspan></text><path class="cls-2" d="M24.33,20.93a29.37,29.37,0,0,0-7.64,11.5,29.37,29.37,0,0,0-7.64-11.5A29.27,29.27,0,0,0,16.69,9.44,29.27,29.27,0,0,0,24.33,20.93Z"/><path class="cls-2" d="M170.33,228.93a29.37,29.37,0,0,0-7.64,11.5,29.37,29.37,0,0,0-7.64-11.5,29.27,29.27,0,0,0,7.64-11.49A29.27,29.27,0,0,0,170.33,228.93Z"/></g></g></svg>