<svg xmlns="http://www.w3.org/2000/svg" viewBox="0 0 178.58 249.45"><defs><style>.cls-1{fill:#e31c24;}.cls-2,.cls-3,.cls-4,.cls-7{fill:#fff;}.cls-3{font-size:30.84px;letter-spacing:-0.12em;}.cls-3,.cls-4,.cls-6,.cls-7{font-family:Helvetica-Bold, Helvetica;font-weight:700;}.cls-4{font-size:13.27px;}.cls-5{font-size:11.98px;}.cls-5,.cls-8{font-family:Helvetica-Light, Helvetica;font-weight:300;}.cls-7{font-size:17.5px;}</style></defs><title>Asset 15</title><g id="Layer_2" data-name="Layer 2"><g id="Sample_Card" data-name="Sample Card"><path class="cls-1" d="M178.58,8.5V241a8.51,8.51,0,0,1-8.51,8.5H8.5A8.5,8.5,0,0,1,0,241V8.5A8.5,8.5,0,0,1,8.5,0H170.07A8.51,8.51,0,0,1,178.58,8.5Z"/><path class="cls-2" d="M170.46,135.51q-6.86-6.3-10.52-6.3a24.4,24.4,0,0,0,9.4-7q7.13-8.28,7.14-20.3,0-17-12-27.1T133,64.67a54,54,0,0,0-17.74,2.53,36,36,0,0,0-12.48,7.33A43.42,43.42,0,0,0,92.48,89.28,67.13,67.13,0,0,0,89,108.54h25q-.19-10,4.26-16.06t13.91-6q8.25,0,12.79,4.89T149.51,104q0,12-8.89,16-5.16,2.35-18.17,2.54v19.17q13.3,0,19.48,2.53,10.88,4.51,10.87,17.95,0,10.14-5.86,15.55a19.59,19.59,0,0,1-13.73,5.4q-12.84,0-17.72-9.86-2.62-5.35-2.62-13.53H86.56q.66,16.25,6.57,26.3Q104.4,205,133.3,204.94q23.47,0,35.44-13.11a45,45,0,0,0,9.84-16.6V147.92A30.33,30.33,0,0,0,170.46,135.51Z"/><text class="cls-3" transform="translate(31.94 32.27)">3</text><path class="cls-2" d="M7.48,14.64a5.33,5.33,0,1,1,10.65,0,5.33,5.33,0,1,1,10.65,0v0c0,6.58-8.54,11-10.64,18.33-2-7.06-10-11.42-10.61-17.6A6.49,6.49,0,0,1,7.48,14.64Z"/><text class="cls-3" transform="translate(146.48 217.58) rotate(180)">3</text><path class="cls-2" d="M170.94,235.21a5.33,5.33,0,1,1-10.66,0,5.33,5.33,0,1,1-10.65,0v0c0-6.57,8.55-11,10.64-18.33,2,7.07,10,11.42,10.61,17.6A4.9,4.9,0,0,1,170.94,235.21Z"/><text class="cls-4" transform="translate(124.65 19.96)">THREE<tspan class="cls-5"><tspan x="-23.56" y="12.39">OF</tspan><tspan class="cls-6" x="-7.58" y="12.39" xml:space="preserve"> HEARTS</tspan></tspan></text><text class="cls-7" transform="translate(20.38 239.66) rotate(-90)">THREE <tspan class="cls-8" x="64.16" y="0">OF</tspan><tspan x="87.5" y="0" xml:space="preserve"> HEARTS</tspan></text></g></g></svg>