<svg xmlns="http://www.w3.org/2000/svg" viewBox="0 0 178.58 249.45"><defs><style>.cls-1,.cls-2,.cls-3,.cls-7{fill:#fff;}.cls-2{font-size:30.84px;letter-spacing:-0.12em;}.cls-2,.cls-3,.cls-5,.cls-6,.cls-7{font-family:Helvetica-Bold, Helvetica;font-weight:700;}.cls-3{font-size:13.27px;}.cls-4{font-size:11.98px;}.cls-4,.cls-8{font-family:Helvetica-Light, Helvetica;font-weight:300;}.cls-6{letter-spacing:-0.07em;}.cls-7{font-size:17.5px;}.cls-9{letter-spacing:-0.07em;}</style></defs><title>Asset 16</title><g id="Layer_2" data-name="Layer 2"><g id="Sample_Card" data-name="Sample Card"><path d="M178.58,8.5V240.94a8.51,8.51,0,0,1-8.51,8.51H8.5A8.5,8.5,0,0,1,0,240.94V8.5A8.49,8.49,0,0,1,8.5,0H170.07A8.5,8.5,0,0,1,178.58,8.5Z"/><path class="cls-1" d="M170.46,135.5q-6.86-6.28-10.52-6.29a24.33,24.33,0,0,0,9.4-7.05q7.13-8.26,7.14-20.29,0-17-12-27.11T133,64.66a54,54,0,0,0-17.74,2.54,35.79,35.79,0,0,0-12.48,7.33A43.42,43.42,0,0,0,92.48,89.28,67,67,0,0,0,89,108.54h25q-.19-10,4.26-16.07t13.91-6q8.25,0,12.79,4.89T149.51,104q0,12-8.89,16-5.16,2.35-18.17,2.54v19.17q13.3,0,19.48,2.53,10.88,4.51,10.87,17.95,0,10.14-5.86,15.55a19.59,19.59,0,0,1-13.73,5.4q-12.84,0-17.72-9.87-2.62-5.36-2.62-13.53H86.56q.66,16.26,6.57,26.31,11.27,18.88,40.17,18.89,23.47,0,35.44-13.11a45.16,45.16,0,0,0,9.84-16.6V147.92A30.37,30.37,0,0,0,170.46,135.5Z"/><text class="cls-2" transform="translate(31.94 32.27)">3</text><text class="cls-2" transform="translate(146.48 217.58) rotate(180)">3</text><text class="cls-3" transform="translate(124.65 19.95)">THREE<tspan class="cls-4"><tspan x="-22.69" y="12.39">OF</tspan><tspan class="cls-5" x="-6.71" y="12.39" xml:space="preserve"> S</tspan><tspan class="cls-6" x="4.6" y="12.39">P</tspan><tspan class="cls-5" x="11.71" y="12.39">ADES</tspan></tspan></text><text class="cls-7" transform="translate(20.38 239.66) rotate(-90)">THREE <tspan class="cls-8" x="64.16" y="0">OF</tspan><tspan x="87.5" y="0" xml:space="preserve"> S</tspan><tspan class="cls-9" x="104.03" y="0">P</tspan><tspan x="114.41" y="0">ADES</tspan></text><path class="cls-1" d="M26.41,31.63v.46H9.34v-.46h.08a8.48,8.48,0,0,0,8.46-8.5,8.47,8.47,0,0,0,8.45,8.5Z"/><path class="cls-1" d="M27.63,22.54c0,2.28-2.18,4.12-4.88,4.12s-4.87-1.84-4.87-4.12c0,2.28-2.19,4.12-4.88,4.12s-4.88-1.84-4.88-4.12v0c0-5.08,7.83-8.5,9.75-14.19,1.85,5.47,9.17,8.85,9.71,13.63A4,4,0,0,1,27.63,22.54Z"/><path class="cls-1" d="M152.34,217.77v-.46h17.07v.46h-.08a8.48,8.48,0,0,0-8.46,8.5,8.48,8.48,0,0,0-8.45-8.5Z"/><path class="cls-1" d="M151.12,226.86c0-2.27,2.18-4.12,4.88-4.12s4.88,1.85,4.88,4.12c0-2.27,2.18-4.12,4.87-4.12s4.88,1.85,4.88,4.12v0c0,5.09-7.83,8.5-9.75,14.19-1.85-5.47-9.17-8.84-9.71-13.63A3.83,3.83,0,0,1,151.12,226.86Z"/></g></g></svg>