<svg xmlns="http://www.w3.org/2000/svg" viewBox="0 0 178.58 249.45"><defs><style>.cls-1{fill:#e31c24;}.cls-2,.cls-3,.cls-4,.cls-7{fill:#fff;}.cls-3{font-size:30.84px;letter-spacing:-0.12em;}.cls-3,.cls-4,.cls-6,.cls-7{font-family:Helvetica-Bold, Helvetica;font-weight:700;}.cls-4{font-size:13.27px;}.cls-5{font-size:11.98px;}.cls-5,.cls-8{font-family:Helvetica-Light, Helvetica;font-weight:300;}.cls-7{font-size:17.5px;}.cls-9{letter-spacing:0em;}</style></defs><title>Asset 62</title><g id="Layer_2" data-name="Layer 2"><g id="Sample_Card" data-name="Sample Card"><path class="cls-1" d="M178.58,8.51V241a8.49,8.49,0,0,1-8.5,8.5H8.5A8.5,8.5,0,0,1,0,241V8.51A8.51,8.51,0,0,1,8.5,0H170.08A8.5,8.5,0,0,1,178.58,8.51Z"/><path class="cls-2" d="M164.71,151.29V66.17H134.64L84.57,148.85v23.4H138.5v29.31h26.21V172.25h13.87v-21Zm-26.21,0h-34l34-58.67Z"/><text class="cls-3" transform="translate(26.94 32.27)">4</text><text class="cls-3" transform="translate(151.48 217.59) rotate(180)">4</text><text class="cls-4" transform="translate(132.04 19.96)">FOUR<tspan class="cls-5"><tspan x="-46.9" y="12.39">OF</tspan><tspan class="cls-6" x="-30.93" y="12.39" xml:space="preserve"> DIAMONDS</tspan></tspan></text><text class="cls-7" transform="translate(20.39 239.67) rotate(-90)">FOUR <tspan class="cls-8" x="54.43" y="0">OF</tspan><tspan class="cls-9" x="77.77" y="0" xml:space="preserve"> DIAMONDS</tspan></text><path class="cls-2" d="M24.34,20.93a29.16,29.16,0,0,0-7.64,11.5,29.29,29.29,0,0,0-7.65-11.5A29.18,29.18,0,0,0,16.7,9.44,29.05,29.05,0,0,0,24.34,20.93Z"/><path class="cls-2" d="M170.34,228.93a29.16,29.16,0,0,0-7.64,11.5,29.29,29.29,0,0,0-7.65-11.5,29.18,29.18,0,0,0,7.65-11.49A29.05,29.05,0,0,0,170.34,228.93Z"/></g></g></svg>