<svg xmlns="http://www.w3.org/2000/svg" viewBox="0 0 178.58 249.45"><defs><style>.cls-1,.cls-2,.cls-3,.cls-6{fill:#fff;}.cls-2{font-size:30.84px;letter-spacing:-0.12em;}.cls-2,.cls-3,.cls-5,.cls-6{font-family:Helvetica-Bold, Helvetica;font-weight:700;}.cls-3{font-size:13.27px;}.cls-4{font-size:11.98px;}.cls-4,.cls-7{font-family:Helvetica-Light, Helvetica;font-weight:300;}.cls-6{font-size:17.5px;}.cls-8{letter-spacing:0em;}</style></defs><title>Asset 21</title><g id="Layer_2" data-name="Layer 2"><g id="Sample_Card" data-name="Sample Card"><path d="M178.58,8.5V240.94a8.51,8.51,0,0,1-8.51,8.51H8.5A8.5,8.5,0,0,1,0,240.94V8.5A8.49,8.49,0,0,1,8.5,0H170.07A8.5,8.5,0,0,1,178.58,8.5Z"/><path class="cls-1" d="M178.58,89.84V67.1H105.39l-9.56,75.26,24,1.13a16.76,16.76,0,0,1,9.46-8.36,26,26,0,0,1,8.44-1.22q10.31,0,15.18,7.18t4.88,17.62q0,10.62-5.2,17.62t-15.14,7q-8.62,0-13.12-4.75t-6.1-13.48H91.56q1.41,19.17,13.89,29.6t31.92,10.42q24.12,0,36.22-14.84a56.81,56.81,0,0,0,5-7.15V129.74a34.89,34.89,0,0,0-5.45-6.26,42.51,42.51,0,0,0-29.46-11.37,40.89,40.89,0,0,0-14.17,2.16,55.58,55.58,0,0,0-9.66,5.36l4.87-29.79Z"/><text class="cls-2" transform="translate(31.94 32.27)">5</text><text class="cls-2" transform="translate(146.48 217.58) rotate(180)">5</text><text class="cls-3" transform="translate(140.13 19.95)">FIVE<tspan class="cls-4"><tspan x="-31.05" y="12.39">OF</tspan><tspan class="cls-5" x="-15.08" y="12.39" xml:space="preserve"> CLUBS</tspan></tspan></text><text class="cls-6" transform="translate(20.38 239.66) rotate(-90)">FIVE <tspan class="cls-7" x="43.75" y="0">OF</tspan><tspan class="cls-8" x="67.09" y="0" xml:space="preserve"> CLUBS</tspan></text><ellipse class="cls-1" cx="13.1" cy="23.66" rx="5.58" ry="4.94" transform="translate(-8.77 7.76) rotate(-25.01)"/><ellipse class="cls-1" cx="24.16" cy="23.62" rx="4.94" ry="5.58" transform="translate(-7.46 35.53) rotate(-64.99)"/><circle class="cls-1" cx="18.63" cy="14.82" r="5.83"/><circle class="cls-1" cx="18.63" cy="21.39" r="2.64"/><path class="cls-1" d="M27,32.15v.45H10.3v-.45h.07a8.28,8.28,0,0,0,8.26-8.29,8.28,8.28,0,0,0,8.26,8.29Z"/><ellipse class="cls-1" cx="165.24" cy="226.19" rx="5.58" ry="4.94" transform="translate(-80.13 91.07) rotate(-25.01)"/><ellipse class="cls-1" cx="154.18" cy="226.22" rx="4.94" ry="5.58" transform="translate(-116.01 270.31) rotate(-64.99)"/><circle class="cls-1" cx="159.71" cy="235.03" r="5.83"/><circle class="cls-1" cx="159.71" cy="228.45" r="2.64"/><path class="cls-1" d="M151.38,217.7v-.45H168v.45H168a8.28,8.28,0,0,0-8.26,8.29,8.27,8.27,0,0,0-8.25-8.29Z"/></g></g></svg>