<svg xmlns="http://www.w3.org/2000/svg" viewBox="0 0 178.58 249.45"><defs><style>.cls-1{fill:#e31c24;}.cls-2,.cls-3,.cls-4,.cls-7{fill:#fff;}.cls-3{font-size:30.84px;letter-spacing:-0.12em;}.cls-3,.cls-4,.cls-6,.cls-7{font-family:Helvetica-Bold, Helvetica;font-weight:700;}.cls-4{font-size:13.27px;}.cls-5{font-size:11.98px;}.cls-5,.cls-8{font-family:Helvetica-Light, Helvetica;font-weight:300;}.cls-7{font-size:17.5px;}.cls-9{letter-spacing:0em;}</style></defs><title>Asset 63</title><g id="Layer_2" data-name="Layer 2"><g id="Sample_Card" data-name="Sample Card"><path class="cls-1" d="M178.58,8.51V241a8.5,8.5,0,0,1-8.51,8.5H8.5A8.49,8.49,0,0,1,0,241V8.51A8.5,8.5,0,0,1,8.5,0H170.07A8.51,8.51,0,0,1,178.58,8.51Z"/><path class="cls-2" d="M178.58,89.85V67.11H105.39l-9.56,75.26,24,1.13a16.82,16.82,0,0,1,9.46-8.37,26.24,26.24,0,0,1,8.44-1.22q10.31,0,15.18,7.19t4.88,17.62q0,10.62-5.2,17.61t-15.14,7q-8.62,0-13.12-4.74t-6.1-13.48H91.56Q93,184.27,105.45,194.7t31.92,10.43q24.12,0,36.22-14.84a55.79,55.79,0,0,0,5-7.15v-53.4a34.89,34.89,0,0,0-5.45-6.26,42.55,42.55,0,0,0-29.46-11.36,40.89,40.89,0,0,0-14.17,2.16,55.38,55.38,0,0,0-9.66,5.35l4.87-29.78Z"/><text class="cls-3" transform="translate(26.94 32.27)">5</text><text class="cls-3" transform="translate(151.48 217.59) rotate(180)">5</text><text class="cls-4" transform="translate(140.13 19.96)">FIVE<tspan class="cls-5"><tspan x="-55" y="12.39">OF</tspan><tspan class="cls-6" x="-39.03" y="12.39" xml:space="preserve"> DIAMONDS</tspan></tspan></text><text class="cls-7" transform="translate(20.38 239.67) rotate(-90)">FIVE <tspan class="cls-8" x="43.75" y="0">OF</tspan><tspan class="cls-9" x="67.09" y="0" xml:space="preserve"> DIAMONDS</tspan></text><path class="cls-2" d="M24.33,20.93a29.37,29.37,0,0,0-7.64,11.5,29.37,29.37,0,0,0-7.64-11.5A29.27,29.27,0,0,0,16.69,9.44,29.27,29.27,0,0,0,24.33,20.93Z"/><path class="cls-2" d="M170.33,228.93a29.37,29.37,0,0,0-7.64,11.5,29.37,29.37,0,0,0-7.64-11.5,29.27,29.27,0,0,0,7.64-11.49A29.27,29.27,0,0,0,170.33,228.93Z"/></g></g></svg>