<svg xmlns="http://www.w3.org/2000/svg" viewBox="0 0 178.58 249.45"><defs><style>.cls-1{fill:#e31c24;}.cls-2,.cls-3,.cls-4,.cls-7{fill:#fff;}.cls-3{font-size:30.84px;letter-spacing:-0.12em;}.cls-3,.cls-4,.cls-6,.cls-7{font-family:Helvetica-Bold, Helvetica;font-weight:700;}.cls-4{font-size:13.27px;}.cls-5{font-size:11.98px;}.cls-5,.cls-8{font-family:Helvetica-Light, Helvetica;font-weight:300;}.cls-7{font-size:17.5px;}.cls-9{letter-spacing:0em;}</style></defs><title>Asset 23</title><g id="Layer_2" data-name="Layer 2"><g id="Sample_Card" data-name="Sample Card"><path class="cls-1" d="M178.58,8.5V241a8.51,8.51,0,0,1-8.51,8.5H8.5A8.5,8.5,0,0,1,0,241V8.5A8.5,8.5,0,0,1,8.5,0H170.07A8.51,8.51,0,0,1,178.58,8.5Z"/><path class="cls-2" d="M178.58,89.85V67.11H105.39l-9.56,75.26,24,1.12a16.76,16.76,0,0,1,9.46-8.36,26.24,26.24,0,0,1,8.44-1.22q10.31,0,15.18,7.19t4.88,17.61q0,10.62-5.2,17.62t-15.14,7q-8.62,0-13.12-4.74t-6.1-13.49H91.56q1.41,19.17,13.89,29.6t31.92,10.43q24.12,0,36.22-14.85a55.79,55.79,0,0,0,5-7.15V129.74a34.89,34.89,0,0,0-5.45-6.26,42.51,42.51,0,0,0-29.46-11.37,40.89,40.89,0,0,0-14.17,2.16,56.27,56.27,0,0,0-9.66,5.36l4.87-29.78Z"/><text class="cls-3" transform="translate(31.94 32.27)">5</text><path class="cls-2" d="M7.48,14.64a5.33,5.33,0,1,1,10.65,0,5.33,5.33,0,1,1,10.65,0v0c0,6.58-8.54,11-10.64,18.33-2-7.06-10-11.42-10.61-17.6A6.49,6.49,0,0,1,7.48,14.64Z"/><text class="cls-3" transform="translate(146.48 217.58) rotate(180)">5</text><path class="cls-2" d="M170.94,235.21a5.33,5.33,0,1,1-10.66,0,5.33,5.33,0,1,1-10.65,0v0c0-6.57,8.55-11,10.64-18.33,2,7.07,10,11.42,10.61,17.6A4.9,4.9,0,0,1,170.94,235.21Z"/><text class="cls-4" transform="translate(140.13 19.96)">FIVE<tspan class="cls-5"><tspan x="-39.04" y="12.39">OF</tspan><tspan class="cls-6" x="-23.06" y="12.39" xml:space="preserve"> HEARTS</tspan></tspan></text><text class="cls-7" transform="translate(20.38 239.66) rotate(-90)">FIVE <tspan class="cls-8" x="43.75" y="0">OF</tspan><tspan class="cls-9" x="67.09" y="0" xml:space="preserve"> HEARTS</tspan></text></g></g></svg>