<svg xmlns="http://www.w3.org/2000/svg" viewBox="0 0 178.58 249.45"><defs><style>.cls-1,.cls-2,.cls-3,.cls-7{fill:#fff;}.cls-2{font-size:30.84px;letter-spacing:-0.12em;}.cls-2,.cls-3,.cls-5,.cls-6,.cls-7{font-family:Helvetica-Bold, Helvetica;font-weight:700;}.cls-3{font-size:13.27px;}.cls-4{font-size:11.98px;}.cls-4,.cls-8{font-family:Helvetica-Light, Helvetica;font-weight:300;}.cls-6{letter-spacing:-0.07em;}.cls-7{font-size:17.5px;}.cls-9{letter-spacing:0em;}.cls-10{letter-spacing:-0.07em;}</style></defs><title>Asset 24</title><g id="Layer_2" data-name="Layer 2"><g id="Sample_Card" data-name="Sample Card"><path d="M178.58,8.5V240.94a8.51,8.51,0,0,1-8.51,8.51H8.5A8.5,8.5,0,0,1,0,240.94V8.5A8.49,8.49,0,0,1,8.5,0H170.07A8.5,8.5,0,0,1,178.58,8.5Z"/><path class="cls-1" d="M178.58,89.84V67.1H105.39l-9.56,75.26,24,1.13a16.76,16.76,0,0,1,9.46-8.36,26,26,0,0,1,8.44-1.22q10.31,0,15.18,7.18t4.88,17.62q0,10.62-5.2,17.62t-15.14,7q-8.62,0-13.12-4.75t-6.1-13.48H91.56q1.41,19.17,13.89,29.6t31.92,10.42q24.12,0,36.22-14.84a56.81,56.81,0,0,0,5-7.15V129.74a34.89,34.89,0,0,0-5.45-6.26,42.51,42.51,0,0,0-29.46-11.37,40.89,40.89,0,0,0-14.17,2.16,55.58,55.58,0,0,0-9.66,5.36l4.87-29.79Z"/><text class="cls-2" transform="translate(31.94 32.27)">5</text><text class="cls-2" transform="translate(146.48 217.58) rotate(180)">5</text><text class="cls-3" transform="translate(140.13 19.95)">FIVE<tspan class="cls-4"><tspan x="-38.17" y="12.39">OF</tspan><tspan class="cls-5" x="-22.19" y="12.39" xml:space="preserve"> S</tspan><tspan class="cls-6" x="-10.88" y="12.39">P</tspan><tspan class="cls-5" x="-3.77" y="12.39">ADES</tspan></tspan></text><text class="cls-7" transform="translate(20.38 239.66) rotate(-90)">FIVE <tspan class="cls-8" x="43.75" y="0">OF</tspan><tspan class="cls-9" x="67.09" y="0" xml:space="preserve"> S</tspan><tspan class="cls-10" x="83.62" y="0">P</tspan><tspan x="94" y="0">ADES</tspan></text><path class="cls-1" d="M26.41,31.63v.46H9.34v-.46h.08a8.48,8.48,0,0,0,8.46-8.5,8.47,8.47,0,0,0,8.45,8.5Z"/><path class="cls-1" d="M27.63,22.54c0,2.28-2.18,4.12-4.88,4.12s-4.87-1.84-4.87-4.12c0,2.28-2.19,4.12-4.88,4.12s-4.88-1.84-4.88-4.12v0c0-5.08,7.83-8.5,9.75-14.19,1.85,5.47,9.17,8.85,9.71,13.63A4,4,0,0,1,27.63,22.54Z"/><path class="cls-1" d="M152.34,217.77v-.46h17.07v.46h-.08a8.48,8.48,0,0,0-8.46,8.5,8.48,8.48,0,0,0-8.45-8.5Z"/><path class="cls-1" d="M151.12,226.86c0-2.27,2.18-4.12,4.88-4.12s4.88,1.85,4.88,4.12c0-2.27,2.18-4.12,4.87-4.12s4.88,1.85,4.88,4.12v0c0,5.09-7.83,8.5-9.75,14.19-1.85-5.47-9.17-8.84-9.71-13.63A3.83,3.83,0,0,1,151.12,226.86Z"/></g></g></svg>