<svg xmlns="http://www.w3.org/2000/svg" viewBox="0 0 178.58 249.45"><defs><style>.cls-1{fill:#e31c24;}.cls-2,.cls-3,.cls-4,.cls-7{fill:#fff;}.cls-3{font-size:30.84px;letter-spacing:-0.12em;}.cls-3,.cls-4,.cls-6,.cls-7{font-family:Helvetica-Bold, Helvetica;font-weight:700;}.cls-4{font-size:13.27px;}.cls-5{font-size:11.98px;}.cls-5,.cls-8{font-family:Helvetica-Light, Helvetica;font-weight:300;}.cls-7{font-size:17.5px;}.cls-8{letter-spacing:0em;}</style></defs><title>Asset 64</title><g id="Layer_2" data-name="Layer 2"><g id="Sample_Card" data-name="Sample Card"><path class="cls-1" d="M178.58,8.51V241a8.49,8.49,0,0,1-8.5,8.5H8.5A8.5,8.5,0,0,1,0,241V8.51A8.51,8.51,0,0,1,8.5,0H170.08A8.5,8.5,0,0,1,178.58,8.51Z"/><path class="cls-2" d="M138.46,86q8.73,0,13.06,6.39a13.64,13.64,0,0,1,2.53,7.23h24.53V89.24a35.23,35.23,0,0,0-10.53-15.5Q156.78,64,137.8,64q-13.16,0-22.6,6A46.82,46.82,0,0,0,99.93,85.9q-6.75,11.56-9.11,28.94a197,197,0,0,0-1.31,25.37q0,26.58,9.49,43.41,12.21,21.51,37.95,21.51,24,0,35.33-14.56a53.65,53.65,0,0,0,6.3-10.18V134.6a40.66,40.66,0,0,0-6.54-9.14q-11.59-12.31-29.73-12.31a39.08,39.08,0,0,0-15,2.72,30,30,0,0,0-11.56,8.65q1.13-15.78,4.13-23.87Q125.4,86,138.46,86Zm-14.19,52.71a19.06,19.06,0,0,1,12.12-4.14,18.62,18.62,0,0,1,14.28,6.34q5.82,6.34,5.83,18.28,0,10.71-5.13,17.43a16.7,16.7,0,0,1-14,6.71,18.85,18.85,0,0,1-15-7q-5.92-6.94-5.92-17.94Q116.38,144.81,124.27,138.71Z"/><text class="cls-3" transform="translate(26.94 32.27)">6</text><text class="cls-3" transform="translate(151.48 217.59) rotate(180)">6</text><text class="cls-4" transform="translate(148.24 19.96)">SIX<tspan class="cls-5"><tspan x="-63.11" y="12.39">OF</tspan><tspan class="cls-6" x="-47.13" y="12.39" xml:space="preserve"> DIAMONDS</tspan></tspan></text><text class="cls-7" transform="translate(20.39 239.67) rotate(-90)">SIX <tspan class="cls-8" x="33.06" y="0">OF</tspan><tspan x="56.4" y="0" xml:space="preserve"> DIAMONDS</tspan></text><path class="cls-2" d="M24.34,20.93a29.16,29.16,0,0,0-7.64,11.5,29.29,29.29,0,0,0-7.65-11.5A29.18,29.18,0,0,0,16.7,9.44,29.05,29.05,0,0,0,24.34,20.93Z"/><path class="cls-2" d="M170.34,228.93a29.16,29.16,0,0,0-7.64,11.5,29.29,29.29,0,0,0-7.65-11.5,29.18,29.18,0,0,0,7.65-11.49A29.05,29.05,0,0,0,170.34,228.93Z"/></g></g></svg>