<svg xmlns="http://www.w3.org/2000/svg" viewBox="0 0 178.58 249.45"><defs><style>.cls-1{fill:#e31c24;}.cls-2,.cls-3,.cls-4,.cls-7{fill:#fff;}.cls-3{font-size:30.84px;letter-spacing:-0.12em;}.cls-3,.cls-4,.cls-6,.cls-7{font-family:Helvetica-Bold, Helvetica;font-weight:700;}.cls-4{font-size:13.27px;}.cls-5{font-size:11.98px;}.cls-5,.cls-8{font-family:Helvetica-Light, Helvetica;font-weight:300;}.cls-7{font-size:17.5px;}.cls-8{letter-spacing:0em;}</style></defs><title>Asset 27</title><g id="Layer_2" data-name="Layer 2"><g id="Sample_Card" data-name="Sample Card"><path class="cls-1" d="M178.58,8.5V241a8.5,8.5,0,0,1-8.5,8.5H8.5A8.51,8.51,0,0,1,0,241V8.5A8.51,8.51,0,0,1,8.5,0H170.08A8.5,8.5,0,0,1,178.58,8.5Z"/><path class="cls-2" d="M138.46,86q8.73,0,13.06,6.39a13.65,13.65,0,0,1,2.53,7.24h24.53V89.23a35.31,35.31,0,0,0-10.53-15.5Q156.78,64,137.8,64q-13.16,0-22.6,6A46.73,46.73,0,0,0,99.93,85.9q-6.75,11.55-9.11,28.94a196.87,196.87,0,0,0-1.31,25.36q0,26.6,9.49,43.41,12.21,21.52,37.95,21.52,24,0,35.33-14.57a54,54,0,0,0,6.3-10.18V134.6a40.5,40.5,0,0,0-6.54-9.15q-11.59-12.3-29.73-12.3a39.08,39.08,0,0,0-15,2.72,30.11,30.11,0,0,0-11.56,8.64q1.13-15.78,4.13-23.86Q125.4,86,138.46,86ZM124.27,138.7a19.11,19.11,0,0,1,12.12-4.13,18.62,18.62,0,0,1,14.28,6.34q5.82,6.34,5.83,18.27,0,10.71-5.13,17.43a16.68,16.68,0,0,1-14,6.72,18.88,18.88,0,0,1-15-7q-5.92-7-5.92-17.95Q116.38,144.81,124.27,138.7Z"/><text class="cls-3" transform="translate(31.94 32.27)">6</text><path class="cls-2" d="M7.48,14.64a5.33,5.33,0,0,1,10.66,0,5.33,5.33,0,1,1,10.65,0v0c0,6.58-8.55,11-10.64,18.33-2-7.06-10-11.42-10.61-17.6A4.9,4.9,0,0,1,7.48,14.64Z"/><text class="cls-3" transform="translate(146.48 217.58) rotate(180)">6</text><path class="cls-2" d="M170.94,235.21a5.33,5.33,0,1,1-10.65,0,5.33,5.33,0,1,1-10.65,0v0c0-6.57,8.54-11,10.64-18.33,2,7.07,10,11.42,10.61,17.6A6.49,6.49,0,0,1,170.94,235.21Z"/><text class="cls-4" transform="translate(148.24 19.96)">SIX<tspan class="cls-5"><tspan x="-47.15" y="12.39">OF</tspan><tspan class="cls-6" x="-31.17" y="12.39" xml:space="preserve"> HEARTS</tspan></tspan></text><text class="cls-7" transform="translate(20.39 239.66) rotate(-90)">SIX <tspan class="cls-8" x="33.06" y="0">OF</tspan><tspan x="56.4" y="0" xml:space="preserve"> HEARTS</tspan></text></g></g></svg>