<svg xmlns="http://www.w3.org/2000/svg" viewBox="0 0 178.58 249.45"><defs><style>.cls-1,.cls-2,.cls-3,.cls-7{fill:#fff;}.cls-2{font-size:30.84px;letter-spacing:-0.12em;}.cls-2,.cls-3,.cls-5,.cls-6,.cls-7{font-family:Helvetica-Bold, Helvetica;font-weight:700;}.cls-3{font-size:13.27px;}.cls-4{font-size:11.98px;}.cls-4,.cls-8{font-family:Helvetica-Light, Helvetica;font-weight:300;}.cls-6{letter-spacing:-0.07em;}.cls-7{font-size:17.5px;}.cls-8{letter-spacing:0em;}.cls-9{letter-spacing:-0.07em;}</style></defs><title>Asset 28</title><g id="Layer_2" data-name="Layer 2"><g id="Sample_Card" data-name="Sample Card"><path d="M178.58,8.5V240.94a8.5,8.5,0,0,1-8.5,8.51H8.5A8.51,8.51,0,0,1,0,240.94V8.5A8.5,8.5,0,0,1,8.5,0H170.08A8.49,8.49,0,0,1,178.58,8.5Z"/><path class="cls-1" d="M138.46,86q8.73,0,13.06,6.39a13.64,13.64,0,0,1,2.53,7.23h24.53V89.23a35.17,35.17,0,0,0-10.53-15.5Q156.78,64,137.8,64q-13.16,0-22.6,6A46.73,46.73,0,0,0,99.93,85.9q-6.75,11.55-9.11,28.93a197.15,197.15,0,0,0-1.31,25.37q0,26.6,9.49,43.41,12.21,21.51,37.95,21.51,24,0,35.33-14.56a54,54,0,0,0,6.3-10.18V134.6a41,41,0,0,0-6.54-9.15q-11.59-12.3-29.73-12.31a38.89,38.89,0,0,0-15,2.73,30,30,0,0,0-11.56,8.64q1.13-15.78,4.13-23.86Q125.4,86,138.46,86ZM124.27,138.7a19.06,19.06,0,0,1,12.12-4.14,18.63,18.63,0,0,1,14.28,6.35q5.82,6.33,5.83,18.27,0,10.71-5.13,17.43a16.68,16.68,0,0,1-14,6.72,18.85,18.85,0,0,1-15-7q-5.92-6.94-5.92-17.94Q116.38,144.81,124.27,138.7Z"/><text class="cls-2" transform="translate(31.94 32.27)">6</text><text class="cls-2" transform="translate(146.48 217.58) rotate(180)">6</text><text class="cls-3" transform="translate(148.24 19.95)">SIX<tspan class="cls-4"><tspan x="-46.27" y="12.39">OF</tspan><tspan class="cls-5" x="-30.3" y="12.39" xml:space="preserve"> S</tspan><tspan class="cls-6" x="-18.98" y="12.39">P</tspan><tspan class="cls-5" x="-11.88" y="12.39">ADES</tspan></tspan></text><text class="cls-7" transform="translate(20.39 239.66) rotate(-90)">SIX <tspan class="cls-8" x="33.06" y="0">OF</tspan><tspan x="56.4" y="0" xml:space="preserve"> S</tspan><tspan class="cls-9" x="72.93" y="0">P</tspan><tspan x="83.31" y="0">ADES</tspan></text><path class="cls-1" d="M26.42,31.63v.46H9.35v-.46h.08a8.47,8.47,0,0,0,8.45-8.5,8.48,8.48,0,0,0,8.46,8.5Z"/><path class="cls-1" d="M27.64,22.54c0,2.28-2.19,4.12-4.88,4.12s-4.88-1.84-4.88-4.12c0,2.28-2.18,4.12-4.88,4.12s-4.87-1.84-4.87-4.12v0c0-5.08,7.82-8.5,9.74-14.19,1.85,5.47,9.18,8.85,9.71,13.63A3.05,3.05,0,0,1,27.64,22.54Z"/><path class="cls-1" d="M152.35,217.77v-.46h17.06v.46h-.07a8.48,8.48,0,0,0-8.46,8.5,8.48,8.48,0,0,0-8.46-8.5Z"/><path class="cls-1" d="M151.13,226.86c0-2.27,2.18-4.12,4.87-4.12s4.88,1.85,4.88,4.12c0-2.27,2.18-4.12,4.88-4.12s4.88,1.85,4.88,4.12v0c0,5.09-7.83,8.5-9.75,14.19-1.85-5.47-9.18-8.84-9.71-13.63A2.92,2.92,0,0,1,151.13,226.86Z"/></g></g></svg>