<svg xmlns="http://www.w3.org/2000/svg" viewBox="0 0 178.58 249.45"><defs><style>.cls-1{fill:#e31c24;}.cls-2,.cls-3,.cls-4,.cls-7{fill:#fff;}.cls-3{font-size:30.84px;letter-spacing:-0.12em;}.cls-3,.cls-4,.cls-6,.cls-7{font-family:Helvetica-Bold, Helvetica;font-weight:700;}.cls-4{font-size:13.27px;}.cls-5{font-size:11.98px;}.cls-5,.cls-8{font-family:Helvetica-Light, Helvetica;font-weight:300;}.cls-7{font-size:17.5px;}.cls-8{letter-spacing:0em;}.cls-9{letter-spacing:0em;}</style></defs><title>Asset 65</title><g id="Layer_2" data-name="Layer 2"><g id="Sample_Card" data-name="Sample Card"><path class="cls-1" d="M178.58,8.51V241a8.5,8.5,0,0,1-8.51,8.5H8.5A8.49,8.49,0,0,1,0,241V8.51A8.5,8.5,0,0,1,8.5,0H170.07A8.51,8.51,0,0,1,178.58,8.51Z"/><path class="cls-2" d="M85.75,67.11l-.38,24h67.88q-10,9.69-24.73,34.2-22.84,39.55-24.07,76.2h27.81q0-11.75,4.61-30.06a185.67,185.67,0,0,1,10.35-31,186.92,186.92,0,0,1,18-31.33q8-11.31,13.38-17.48V67.11Z"/><text class="cls-3" transform="translate(26.94 32.27)">7</text><text class="cls-3" transform="translate(151.48 217.59) rotate(180)">7</text><text class="cls-4" transform="translate(124.64 19.96)">SEVEN<tspan class="cls-5"><tspan x="-39.51" y="12.39">OF</tspan><tspan class="cls-6" x="-23.53" y="12.39" xml:space="preserve"> DIAMONDS</tspan></tspan></text><text class="cls-7" transform="translate(20.38 239.67) rotate(-90)">SEVEN <tspan class="cls-8" x="64.17" y="0">OF</tspan><tspan class="cls-9" x="87.51" y="0" xml:space="preserve"> DIAMONDS</tspan></text><path class="cls-2" d="M24.33,20.93a29.37,29.37,0,0,0-7.64,11.5,29.37,29.37,0,0,0-7.64-11.5A29.27,29.27,0,0,0,16.69,9.44,29.27,29.27,0,0,0,24.33,20.93Z"/><path class="cls-2" d="M170.33,228.93a29.37,29.37,0,0,0-7.64,11.5,29.37,29.37,0,0,0-7.64-11.5,29.27,29.27,0,0,0,7.64-11.49A29.27,29.27,0,0,0,170.33,228.93Z"/></g></g></svg>