<svg xmlns="http://www.w3.org/2000/svg" viewBox="0 0 178.58 249.45"><defs><style>.cls-1,.cls-2,.cls-3,.cls-6{fill:#fff;}.cls-2{font-size:30.84px;letter-spacing:-0.12em;}.cls-2,.cls-3,.cls-5,.cls-6{font-family:Helvetica-Bold, Helvetica;font-weight:700;}.cls-3{font-size:13.27px;}.cls-4{font-size:11.98px;}.cls-4,.cls-7{font-family:Helvetica-Light, Helvetica;font-weight:300;}.cls-6{font-size:17.5px;}.cls-8{letter-spacing:0em;}</style></defs><title>Asset 33</title><g id="Layer_2" data-name="Layer 2"><g id="Sample_Card" data-name="Sample Card"><path d="M178.58,8.5V240.94a8.5,8.5,0,0,1-8.5,8.51H8.5A8.51,8.51,0,0,1,0,240.94V8.5A8.5,8.5,0,0,1,8.5,0H170.08A8.49,8.49,0,0,1,178.58,8.5Z"/><path class="cls-1" d="M175.18,143A37.91,37.91,0,0,0,160,128.08q9.86-5.64,12.82-13.29a39.75,39.75,0,0,0,3-14.33q0-14.85-11.2-25.32T132.92,64.66q-20.43,0-31.64,10.48t-11.2,25.32a39.78,39.78,0,0,0,3,14.33q3,7.65,12.87,14.23a32.87,32.87,0,0,0-15.17,14,41.86,41.86,0,0,0-5.18,20.76,40.39,40.39,0,0,0,11.75,29.27q11.76,12.07,34.61,12.07t35.6-12.07a39.62,39.62,0,0,0,11.05-17.43V151.3A39.85,39.85,0,0,0,175.18,143ZM120.29,90.83q4.58-4.56,12.68-4.56t12.67,4.56q4.47,4.56,4.47,12.64a16.89,16.89,0,0,1-4.47,12.12q-4.48,4.69-12.67,4.69t-12.68-4.69a16.7,16.7,0,0,1-4.56-12.12Q115.73,95.39,120.29,90.83Zm27.14,86.77q-5.2,5.53-14.42,5.54t-14.42-5.54q-5.22-5.55-5.21-15.6,0-10.42,5.3-15.83t14.33-5.4q9,0,14.33,5.4T152.65,162Q152.65,172,147.43,177.6Z"/><text class="cls-2" transform="translate(31.94 32.27)">8</text><text class="cls-2" transform="translate(146.48 217.58) rotate(180)">8</text><text class="cls-3" transform="translate(129.08 19.95)">EIGHT<tspan class="cls-4"><tspan x="-20" y="12.39">OF</tspan><tspan class="cls-5" x="-4.02" y="12.39" xml:space="preserve"> CLUBS</tspan></tspan></text><text class="cls-6" transform="translate(20.39 239.66) rotate(-90)">EIGHT <tspan class="cls-7" x="58.32" y="0">OF</tspan><tspan class="cls-8" x="81.66" y="0" xml:space="preserve"> CLUBS</tspan></text><ellipse class="cls-1" cx="13.11" cy="23.66" rx="5.58" ry="4.94" transform="translate(-8.77 7.76) rotate(-25.01)"/><ellipse class="cls-1" cx="24.16" cy="23.62" rx="4.94" ry="5.58" transform="translate(-7.46 35.54) rotate(-64.99)"/><circle class="cls-1" cx="18.64" cy="14.82" r="5.83"/><circle class="cls-1" cx="18.64" cy="21.39" r="2.64"/><path class="cls-1" d="M27,32.15v.45H10.31v-.45h.07a8.28,8.28,0,0,0,8.26-8.29,8.27,8.27,0,0,0,8.25,8.29Z"/><ellipse class="cls-1" cx="165.25" cy="226.19" rx="5.58" ry="4.94" transform="translate(-80.13 91.07) rotate(-25.01)"/><ellipse class="cls-1" cx="154.19" cy="226.22" rx="4.94" ry="5.58" transform="translate(-116.01 270.31) rotate(-64.99)"/><circle class="cls-1" cx="159.72" cy="235.03" r="5.83"/><circle class="cls-1" cx="159.72" cy="228.45" r="2.64"/><path class="cls-1" d="M151.39,217.7v-.45h16.66v.45H168a8.27,8.27,0,0,0-8.25,8.29,8.28,8.28,0,0,0-8.26-8.29Z"/></g></g></svg>