<svg xmlns="http://www.w3.org/2000/svg" viewBox="0 0 178.58 249.45"><defs><style>.cls-1{fill:#e31c24;}.cls-2,.cls-3,.cls-4,.cls-7{fill:#fff;}.cls-3{font-size:30.84px;letter-spacing:-0.12em;}.cls-3,.cls-4,.cls-6,.cls-7{font-family:Helvetica-Bold, Helvetica;font-weight:700;}.cls-4{font-size:13.27px;}.cls-5{font-size:11.98px;}.cls-5,.cls-8{font-family:Helvetica-Light, Helvetica;font-weight:300;}.cls-7{font-size:17.5px;}.cls-9{letter-spacing:0em;}</style></defs><title>Asset 66</title><g id="Layer_2" data-name="Layer 2"><g id="Sample_Card" data-name="Sample Card"><path class="cls-1" d="M178.58,8.51V241a8.49,8.49,0,0,1-8.5,8.5H8.5A8.5,8.5,0,0,1,0,241V8.51A8.51,8.51,0,0,1,8.5,0H170.08A8.5,8.5,0,0,1,178.58,8.51Z"/><path class="cls-2" d="M175.18,143A37.91,37.91,0,0,0,160,128.09q9.86-5.64,12.82-13.3a39.7,39.7,0,0,0,3-14.32q0-14.85-11.2-25.33T132.92,64.67q-20.43,0-31.64,10.47t-11.2,25.33a39.73,39.73,0,0,0,3,14.32q3,7.67,12.87,14.24a32.87,32.87,0,0,0-15.17,14,41.86,41.86,0,0,0-5.18,20.76,40.4,40.4,0,0,0,11.75,29.27q11.76,12.08,34.61,12.07t35.6-12.07a39.59,39.59,0,0,0,11.05-17.44V151.31A39.85,39.85,0,0,0,175.18,143ZM120.29,90.84q4.58-4.56,12.68-4.56t12.67,4.56c3,3,4.47,7.25,4.47,12.63a16.86,16.86,0,0,1-4.47,12.12q-4.48,4.69-12.67,4.7t-12.68-4.7a16.67,16.67,0,0,1-4.56-12.12C115.73,98.09,117.25,93.87,120.29,90.84Zm27.14,86.76q-5.2,5.55-14.42,5.55t-14.42-5.55q-5.22-5.53-5.21-15.59,0-10.44,5.3-15.84t14.33-5.4q9,0,14.33,5.4T152.65,162Q152.65,172.06,147.43,177.6Z"/><text class="cls-3" transform="translate(26.94 32.27)">8</text><text class="cls-3" transform="translate(151.48 217.59) rotate(180)">8</text><text class="cls-4" transform="translate(129.08 19.96)">EIGHT<tspan class="cls-5"><tspan x="-43.95" y="12.39">OF</tspan><tspan class="cls-6" x="-27.97" y="12.39" xml:space="preserve"> DIAMONDS</tspan></tspan></text><text class="cls-7" transform="translate(20.39 239.67) rotate(-90)">EIGHT <tspan class="cls-8" x="58.32" y="0">OF</tspan><tspan class="cls-9" x="81.66" y="0" xml:space="preserve"> DIAMONDS</tspan></text><path class="cls-2" d="M24.34,20.93a29.16,29.16,0,0,0-7.64,11.5,29.29,29.29,0,0,0-7.65-11.5A29.18,29.18,0,0,0,16.7,9.44,29.05,29.05,0,0,0,24.34,20.93Z"/><path class="cls-2" d="M170.34,228.93a29.16,29.16,0,0,0-7.64,11.5,29.29,29.29,0,0,0-7.65-11.5,29.18,29.18,0,0,0,7.65-11.49A29.05,29.05,0,0,0,170.34,228.93Z"/></g></g></svg>