<svg xmlns="http://www.w3.org/2000/svg" viewBox="0 0 178.58 249.45"><defs><style>.cls-1{fill:#e31c24;}.cls-2,.cls-3,.cls-4,.cls-7{fill:#fff;}.cls-3{font-size:30.84px;letter-spacing:-0.12em;}.cls-3,.cls-4,.cls-6,.cls-7{font-family:Helvetica-Bold, Helvetica;font-weight:700;}.cls-4{font-size:13.27px;}.cls-5{font-size:11.98px;}.cls-5,.cls-8{font-family:Helvetica-Light, Helvetica;font-weight:300;}.cls-7{font-size:17.5px;}.cls-9{letter-spacing:0em;}</style></defs><title>Asset 35</title><g id="Layer_2" data-name="Layer 2"><g id="Sample_Card" data-name="Sample Card"><rect class="cls-1" width="178.58" height="249.45" rx="8.5"/><path class="cls-2" d="M175.18,143A37.91,37.91,0,0,0,160,128.08q9.86-5.63,12.82-13.29a39.71,39.71,0,0,0,3-14.33q0-14.83-11.2-25.32T132.92,64.67q-20.43,0-31.64,10.47t-11.2,25.32a39.74,39.74,0,0,0,3,14.33q3,7.67,12.87,14.23a32.92,32.92,0,0,0-15.17,14,41.9,41.9,0,0,0-5.18,20.77,40.36,40.36,0,0,0,11.75,29.26q11.76,12.07,34.61,12.08t35.6-12.08a39.53,39.53,0,0,0,11.05-17.42V151.31A39.71,39.71,0,0,0,175.18,143ZM120.29,90.83q4.58-4.56,12.68-4.56t12.67,4.56q4.47,4.56,4.47,12.64a16.86,16.86,0,0,1-4.47,12.12q-4.48,4.69-12.67,4.7t-12.68-4.7a16.67,16.67,0,0,1-4.56-12.12Q115.73,95.39,120.29,90.83Zm27.14,86.77q-5.2,5.55-14.42,5.54t-14.42-5.54q-5.22-5.55-5.21-15.6,0-10.42,5.3-15.83t14.33-5.4q9,0,14.33,5.4T152.65,162Q152.65,172.07,147.43,177.6Z"/><text class="cls-3" transform="translate(31.94 32.27)">8</text><path class="cls-2" d="M7.48,14.64a5.33,5.33,0,0,1,10.66,0,5.33,5.33,0,1,1,10.65,0v0c0,6.58-8.55,11-10.64,18.33-2-7.06-10-11.42-10.61-17.6A4.9,4.9,0,0,1,7.48,14.64Z"/><text class="cls-3" transform="translate(146.48 217.58) rotate(180)">8</text><path class="cls-2" d="M170.94,235.21a5.33,5.33,0,1,1-10.65,0,5.33,5.33,0,1,1-10.65,0v0c0-6.57,8.54-11,10.64-18.33,2,7.07,10,11.42,10.61,17.6A6.49,6.49,0,0,1,170.94,235.21Z"/><text class="cls-4" transform="translate(129.08 19.96)">EIGHT<tspan class="cls-5"><tspan x="-27.98" y="12.39">OF</tspan><tspan class="cls-6" x="-12.01" y="12.39" xml:space="preserve"> HEARTS</tspan></tspan></text><text class="cls-7" transform="translate(20.39 239.66) rotate(-90)">EIGHT <tspan class="cls-8" x="58.32" y="0">OF</tspan><tspan class="cls-9" x="81.66" y="0" xml:space="preserve"> HEARTS</tspan></text></g></g></svg>