<svg xmlns="http://www.w3.org/2000/svg" viewBox="0 0 178.58 249.45"><defs><style>.cls-1,.cls-2,.cls-3,.cls-6{fill:#fff;}.cls-2{font-size:30.84px;letter-spacing:-0.12em;}.cls-2,.cls-3,.cls-5,.cls-6{font-family:Helvetica-Bold, Helvetica;font-weight:700;}.cls-3{font-size:13.27px;}.cls-4{font-size:11.98px;}.cls-4,.cls-7{font-family:Helvetica-Light, Helvetica;font-weight:300;}.cls-6{font-size:17.5px;}.cls-7{letter-spacing:0em;}.cls-8{letter-spacing:0em;}</style></defs><title>Asset 37</title><g id="Layer_2" data-name="Layer 2"><g id="Sample_Card" data-name="Sample Card"><path d="M178.58,8.5V240.94a8.51,8.51,0,0,1-8.51,8.51H8.5A8.5,8.5,0,0,1,0,240.94V8.5A8.49,8.49,0,0,1,8.5,0H170.07A8.5,8.5,0,0,1,178.58,8.5Z"/><path class="cls-1" d="M173.35,91.72Q161.78,64.2,130.69,64.19q-20.2,0-32.83,13.58T85.22,113.24q0,21.14,12.59,32.36a42.07,42.07,0,0,0,28.84,11.23q11,0,18.51-4.51a28.84,28.84,0,0,0,7.8-7q-.75,15.5-3.66,23.58-5.36,14.65-18.61,14.66-6.85,0-11-3.76a16.1,16.1,0,0,1-5.07-9.77H87.94q1.78,17.37,14,26.44a45,45,0,0,0,27.53,9.07q32.13,0,44.16-31.47a92.57,92.57,0,0,0,5-20.21v-42A80.65,80.65,0,0,0,173.35,91.72Zm-30.44,40.12A18.74,18.74,0,0,1,132.48,135q-10.24,0-15.18-6.06t-4.93-18.18q0-14.37,7.71-20.38a18.36,18.36,0,0,1,11.74-3.86q9.39,0,14.8,6.77t5.4,18.32Q152,126,142.91,131.84Z"/><text class="cls-2" transform="translate(31.94 32.27)">9</text><text class="cls-2" transform="translate(146.48 217.58) rotate(180)">9</text><text class="cls-3" transform="translate(137.92 19.95)">NINE<tspan class="cls-4"><tspan x="-28.84" y="12.39">OF</tspan><tspan class="cls-5" x="-12.87" y="12.39" xml:space="preserve"> CLUBS</tspan></tspan></text><text class="cls-6" transform="translate(20.38 239.66) rotate(-90)">NINE <tspan class="cls-7" x="46.66" y="0">OF</tspan><tspan class="cls-8" x="70" y="0" xml:space="preserve"> CLUBS</tspan></text><ellipse class="cls-1" cx="13.1" cy="23.66" rx="5.58" ry="4.94" transform="translate(-8.77 7.76) rotate(-25.01)"/><ellipse class="cls-1" cx="24.16" cy="23.62" rx="4.94" ry="5.58" transform="translate(-7.46 35.53) rotate(-64.99)"/><circle class="cls-1" cx="18.63" cy="14.82" r="5.83"/><circle class="cls-1" cx="18.63" cy="21.39" r="2.64"/><path class="cls-1" d="M27,32.15v.45H10.3v-.45h.07a8.28,8.28,0,0,0,8.26-8.29,8.28,8.28,0,0,0,8.26,8.29Z"/><ellipse class="cls-1" cx="165.24" cy="226.19" rx="5.58" ry="4.94" transform="translate(-80.13 91.07) rotate(-25.01)"/><ellipse class="cls-1" cx="154.18" cy="226.22" rx="4.94" ry="5.58" transform="translate(-116.01 270.31) rotate(-64.99)"/><circle class="cls-1" cx="159.71" cy="235.03" r="5.83"/><circle class="cls-1" cx="159.71" cy="228.45" r="2.64"/><path class="cls-1" d="M151.38,217.7v-.45H168v.45H168a8.28,8.28,0,0,0-8.26,8.29,8.27,8.27,0,0,0-8.25-8.29Z"/></g></g></svg>