<svg xmlns="http://www.w3.org/2000/svg" viewBox="0 0 178.58 249.45"><defs><style>.cls-1{fill:#e31c24;}.cls-2,.cls-3,.cls-4,.cls-7{fill:#fff;}.cls-3{font-size:30.84px;letter-spacing:-0.12em;}.cls-3,.cls-4,.cls-6,.cls-7{font-family:Helvetica-Bold, Helvetica;font-weight:700;}.cls-4{font-size:13.27px;}.cls-5{font-size:11.98px;}.cls-5,.cls-8{font-family:Helvetica-Light, Helvetica;font-weight:300;}.cls-7{font-size:17.5px;}.cls-8{letter-spacing:0em;}.cls-9{letter-spacing:0em;}</style></defs><title>Asset 67</title><g id="Layer_2" data-name="Layer 2"><g id="Sample_Card" data-name="Sample Card"><path class="cls-1" d="M178.58,8.51V241a8.5,8.5,0,0,1-8.51,8.5H8.5A8.49,8.49,0,0,1,0,241V8.51A8.5,8.5,0,0,1,8.5,0H170.07A8.51,8.51,0,0,1,178.58,8.51Z"/><path class="cls-2" d="M173.35,91.73Q161.78,64.2,130.69,64.2q-20.2,0-32.83,13.58T85.22,113.24q0,21.15,12.59,32.37a42.07,42.07,0,0,0,28.84,11.23q11,0,18.51-4.51a28.89,28.89,0,0,0,7.8-7.05q-.75,15.51-3.66,23.58-5.36,14.67-18.61,14.66-6.85,0-11-3.76a16,16,0,0,1-5.07-9.77H87.94q1.78,17.38,14,26.45a45.06,45.06,0,0,0,27.53,9.07q32.13,0,44.16-31.48a92.33,92.33,0,0,0,5-20.2v-42A80.76,80.76,0,0,0,173.35,91.73Zm-30.44,40.12A18.74,18.74,0,0,1,132.48,135q-10.24,0-15.18-6.06t-4.93-18.18q0-14.37,7.71-20.39a18.36,18.36,0,0,1,11.74-3.85q9.39,0,14.8,6.77t5.4,18.32Q152,126,142.91,131.85Z"/><text class="cls-3" transform="translate(26.94 32.27)">9</text><text class="cls-3" transform="translate(151.48 217.59) rotate(180)">9</text><text class="cls-4" transform="translate(137.92 19.96)">NINE<tspan class="cls-5"><tspan x="-52.79" y="12.39">OF</tspan><tspan class="cls-6" x="-36.82" y="12.39" xml:space="preserve"> DIAMONDS</tspan></tspan></text><text class="cls-7" transform="translate(20.38 239.67) rotate(-90)">NINE <tspan class="cls-8" x="46.66" y="0">OF</tspan><tspan class="cls-9" x="70" y="0" xml:space="preserve"> DIAMONDS</tspan></text><path class="cls-2" d="M24.33,20.93a29.37,29.37,0,0,0-7.64,11.5,29.37,29.37,0,0,0-7.64-11.5A29.27,29.27,0,0,0,16.69,9.44,29.27,29.27,0,0,0,24.33,20.93Z"/><path class="cls-2" d="M170.33,228.93a29.37,29.37,0,0,0-7.64,11.5,29.37,29.37,0,0,0-7.64-11.5,29.27,29.27,0,0,0,7.64-11.49A29.27,29.27,0,0,0,170.33,228.93Z"/></g></g></svg>