<svg xmlns="http://www.w3.org/2000/svg" viewBox="0 0 178.58 249.45"><defs><style>.cls-1{fill:#e31c24;}.cls-2,.cls-3,.cls-4,.cls-7{fill:#fff;}.cls-3{font-size:30.84px;letter-spacing:-0.12em;}.cls-3,.cls-4,.cls-6,.cls-7{font-family:Helvetica-Bold, Helvetica;font-weight:700;}.cls-4{font-size:13.27px;}.cls-5{font-size:11.98px;}.cls-5,.cls-8{font-family:Helvetica-Light, Helvetica;font-weight:300;}.cls-7{font-size:17.5px;}.cls-8{letter-spacing:0em;}.cls-9{letter-spacing:0em;}</style></defs><title>Asset 39</title><g id="Layer_2" data-name="Layer 2"><g id="Sample_Card" data-name="Sample Card"><path class="cls-1" d="M178.58,8.5V241a8.51,8.51,0,0,1-8.51,8.5H8.5A8.5,8.5,0,0,1,0,241V8.5A8.5,8.5,0,0,1,8.5,0H170.07A8.51,8.51,0,0,1,178.58,8.5Z"/><path class="cls-2" d="M173.35,91.72Q161.78,64.2,130.69,64.2q-20.2,0-32.83,13.57T85.22,113.24q0,21.14,12.59,32.37a42.1,42.1,0,0,0,28.84,11.22q11,0,18.51-4.51a28.67,28.67,0,0,0,7.8-7q-.75,15.5-3.66,23.58-5.36,14.65-18.61,14.66-6.85,0-11-3.76a16,16,0,0,1-5.07-9.77H87.94q1.78,17.38,14,26.45a45.05,45.05,0,0,0,27.53,9.06q32.13,0,44.16-31.47a92.33,92.33,0,0,0,5-20.2v-42A80.65,80.65,0,0,0,173.35,91.72Zm-30.44,40.12a18.75,18.75,0,0,1-10.43,3.2q-10.24,0-15.18-6.06t-4.93-18.18q0-14.39,7.71-20.39a18.36,18.36,0,0,1,11.74-3.85q9.39,0,14.8,6.76t5.4,18.32Q152,126,142.91,131.84Z"/><text class="cls-3" transform="translate(31.94 32.27)">9</text><path class="cls-2" d="M7.48,14.64a5.33,5.33,0,1,1,10.65,0,5.33,5.33,0,1,1,10.65,0v0c0,6.58-8.54,11-10.64,18.33-2-7.06-10-11.42-10.61-17.6A6.49,6.49,0,0,1,7.48,14.64Z"/><text class="cls-3" transform="translate(146.48 217.58) rotate(180)">9</text><path class="cls-2" d="M170.94,235.21a5.33,5.33,0,1,1-10.66,0,5.33,5.33,0,1,1-10.65,0v0c0-6.57,8.55-11,10.64-18.33,2,7.07,10,11.42,10.61,17.6A4.9,4.9,0,0,1,170.94,235.21Z"/><text class="cls-4" transform="translate(137.92 19.96)">NINE<tspan class="cls-5"><tspan x="-36.83" y="12.39">OF</tspan><tspan class="cls-6" x="-20.85" y="12.39" xml:space="preserve"> HEARTS</tspan></tspan></text><text class="cls-7" transform="translate(20.38 239.66) rotate(-90)">NINE <tspan class="cls-8" x="46.66" y="0">OF</tspan><tspan class="cls-9" x="70" y="0" xml:space="preserve"> HEARTS</tspan></text></g></g></svg>