<svg xmlns="http://www.w3.org/2000/svg" width="178.58" height="249.45" viewBox="0 0 178.58 249.45"><title>Deck of Cards</title><path d="M8.5,249.08a8.14,8.14,0,0,1-8.12-8.14V8.5A8.13,8.13,0,0,1,8.5.37H170.07a8.15,8.15,0,0,1,8.14,8.13V240.94a8.15,8.15,0,0,1-8.14,8.14Z" fill="#fff"/><path d="M170.07.75a7.77,7.77,0,0,1,7.76,7.75V240.94a7.77,7.77,0,0,1-7.76,7.76H8.5a7.77,7.77,0,0,1-7.75-7.76V8.5A7.76,7.76,0,0,1,8.5.75H170.07m0-.75H8.5A8.49,8.49,0,0,0,0,8.5V240.94a8.5,8.5,0,0,0,8.5,8.51H170.07a8.51,8.51,0,0,0,8.51-8.51V8.5A8.5,8.5,0,0,0,170.07,0Z" fill="#e6e6e6"/><text transform="translate(132.02 19.95)" font-size="13.27" font-family="Helvetica-Bold, Helvetica" font-weight="700">DECK<tspan font-size="11.98" font-family="Helvetica-Light, Helvetica" font-weight="300"><tspan x="-24.28" y="12.39">OF</tspan><tspan x="-8.3" y="12.39" xml:space="preserve" font-family="Helvetica-Bold, Helvetica" font-weight="700"> CARDS</tspan></tspan></text><text transform="translate(20.38 239.66) rotate(-90)" font-size="17.5" font-family="Helvetica-Bold, Helvetica" font-weight="700">DECK <tspan x="54.44" y="0" font-family="Helvetica-Light, Helvetica" font-weight="300">OF</tspan><tspan x="77.77" y="0" xml:space="preserve"> CARDS</tspan></text><path d="M135.34,86.16a65,65,0,0,0-17,25.52,64.82,64.82,0,0,0-17-25.52,64.71,64.71,0,0,0,17-25.51A64.92,64.92,0,0,0,135.34,86.16Z" fill="#e31c24"/><path d="M137.33,178.08v1H99.45v-1h.16a18.82,18.82,0,0,0,18.78-18.86,18.81,18.81,0,0,0,18.77,18.86Z"/><path d="M140,157.9c0,5-4.84,9.15-10.82,9.15s-10.83-4.1-10.83-9.15c0,5-4.84,9.15-10.82,9.15S96.73,163,96.73,157.9v-.08c0-11.29,17.38-18.88,21.63-31.5,4.11,12.15,20.37,19.63,21.56,30.26A8.2,8.2,0,0,1,140,157.9Z"/><ellipse cx="57.44" cy="92.56" rx="12.38" ry="10.97" transform="translate(-33.75 32.96) rotate(-25.01)"/><ellipse cx="81.98" cy="92.48" rx="10.97" ry="12.38" transform="translate(-36.49 127.68) rotate(-64.99)"/><circle cx="69.71" cy="72.93" r="12.95"/><circle cx="69.71" cy="87.53" r="5.87"/><path d="M88.2,111.4v1h-37v-1h.17A18.37,18.37,0,0,0,69.71,93,18.36,18.36,0,0,0,88,111.4Z"/><path d="M46.11,138.26a11.82,11.82,0,0,1,23.64,0,11.83,11.83,0,0,1,23.65,0v.1c0,14.59-19,24.38-23.62,40.68C65.29,163.36,47.53,153.69,46.23,140A12.08,12.08,0,0,1,46.11,138.26Z" fill="#e31c24"/></svg>